<svg width="400" height="400" viewBox="0 0 400 400" fill="none" xmlns="http://www.w3.org/2000/svg">
<g clip-path="url(#clip0_1142_2)">
<path fill-rule="evenodd" clip-rule="evenodd" d="M-0.5 -0.5C132.833 -0.5 266.167 -0.5 399.5 -0.5C399.5 132.833 399.5 266.167 399.5 399.5C266.167 399.5 132.833 399.5 -0.5 399.5C-0.5 266.167 -0.5 132.833 -0.5 -0.5Z" fill="#F4F5F7"/>
<path d="M279.057 114.88L314.118 79.96C320.024 74.0775 315.852 64 307.532 64H204.085C204.085 64 148.635 64 112.145 107.943C110.903 109.443 109.684 110.943 108.419 112.396C106.896 114.177 104.271 117.388 101.247 121.887C80.3893 152.823 76.5224 192.008 89.4591 226.998C95.3182 242.794 104.763 261.614 119.223 274.175L135.605 257.559C146.034 246.989 148.143 231.029 141.44 217.788C137.222 209.445 133.918 198.031 134.457 183.079C134.996 168.127 139.87 153.104 149.385 141.316C159.463 128.824 176.712 116.356 205.421 116.684L279.057 114.927V114.88Z" fill="#0A0ABC"/>
<path d="M120.606 273.12L85.5453 308.039C79.6394 313.922 83.8112 324 92.131 324H195.578C195.578 324 251.028 324 287.518 280.057C288.76 278.557 289.979 277.057 291.244 275.604C292.768 273.823 295.393 270.612 298.416 266.112C319.274 235.177 323.141 195.991 310.204 161.001C304.345 145.205 294.901 126.386 280.44 113.824L264.059 130.44C253.63 141.01 251.52 156.97 258.223 170.212C262.442 178.555 265.746 189.968 265.207 204.921C264.668 219.873 259.793 234.895 250.278 246.684C240.201 259.175 222.951 271.643 194.242 271.315L120.606 273.073V273.12Z" fill="#0A0ABC"/>
</g>
</svg>
