<svg width="236" height="260" viewBox="0 0 236 260" fill="none" xmlns="http://www.w3.org/2000/svg">
<path d="M197.057 50.8799L232.118 15.96C238.024 10.0775 233.852 0 225.532 0H122.085C122.085 0 66.6354 0 30.1453 43.9428C28.9032 45.4427 27.6844 46.9426 26.4189 48.3956C24.8955 50.1768 22.2707 53.3876 19.2474 57.8873C-1.61074 88.823 -5.47763 128.008 7.45912 162.998C13.3182 178.794 22.763 197.614 37.2231 210.175L53.6049 193.559C64.034 182.989 66.1432 167.029 59.4405 153.788C55.222 145.445 51.9175 134.031 52.4566 119.079C52.9956 104.127 57.8703 89.1042 67.3854 77.3158C77.4629 64.8244 94.7119 52.3564 123.421 52.6845L197.057 50.9268V50.8799Z" fill="#0A0ABC"/>
<path d="M38.6059 209.12L3.54534 244.039C-2.36057 249.922 1.8112 260 10.131 260H113.578C113.578 260 169.028 260 205.518 216.057C206.76 214.557 207.979 213.057 209.244 211.604C210.768 209.823 213.393 206.612 216.416 202.112C237.274 171.177 241.141 131.991 228.204 97.0012C222.345 81.2052 212.901 62.386 198.44 49.8242L182.059 66.4404C171.63 77.0101 169.52 92.9702 176.223 106.212C180.442 114.555 183.746 125.968 183.207 140.921C182.668 155.873 177.793 170.895 168.278 182.684C158.201 195.175 140.951 207.643 112.242 207.315L38.6059 209.073V209.12Z" fill="#0A0ABC"/>
</svg>
