<svg width="522" height="140" viewBox="0 0 522 140" fill="none" xmlns="http://www.w3.org/2000/svg">
<path d="M210.103 94.8798C213.503 97.6798 217.933 99.0798 223.383 99.0798C228.163 99.0798 232.033 98.0498 234.983 95.9998C237.933 93.9398 239.413 91.0898 239.413 87.4298C239.413 84.8198 238.613 82.7398 237.003 81.2098C235.393 79.6798 233.213 78.4998 230.443 77.6798C227.683 76.8598 223.793 75.9998 218.783 75.0998C213.703 74.1998 209.353 73.0298 205.723 71.5698C202.103 70.1098 199.153 67.8898 196.873 64.8998C194.593 61.9098 193.453 57.9898 193.453 53.1298C193.453 48.6498 194.633 44.6498 196.983 41.1398C199.333 37.6298 202.623 34.8998 206.843 32.9598C211.063 31.0198 215.903 30.0498 221.353 30.0498C226.803 30.0498 231.963 31.0998 236.373 33.1898C240.783 35.2798 244.253 38.1598 246.793 41.8198C249.333 45.4798 250.713 49.6598 250.943 54.3698H238.283C237.833 50.3298 236.083 47.0898 233.013 44.6198C229.953 42.1498 226.063 40.9198 221.363 40.9198C216.663 40.9198 213.163 41.9098 210.433 43.8898C207.703 45.8698 206.343 48.6498 206.343 52.2398C206.343 54.7798 207.143 56.7998 208.753 58.2898C210.363 59.7898 212.503 60.8998 215.193 61.6498C217.883 62.3998 221.733 63.2198 226.733 64.1098C231.813 65.0098 236.183 66.1998 239.843 67.6998C243.503 69.1898 246.493 71.3998 248.813 74.3098C251.133 77.2198 252.283 81.0698 252.283 85.8498C252.283 90.6298 251.053 94.6298 248.583 98.2898C246.113 101.95 242.683 104.81 238.273 106.86C233.863 108.92 228.863 109.94 223.253 109.94C217.053 109.94 211.593 108.82 206.893 106.58C202.183 104.34 198.503 101.22 195.853 97.2198C193.203 93.2198 191.833 88.6498 191.763 83.4898L204.423 83.7098C204.793 88.3398 206.683 92.0598 210.083 94.8598L210.103 94.8798Z" fill="black"/>
<path d="M259.733 51.9001V35.8701H271.953V51.9001H285.733V62.5501H271.953V92.4701C271.953 94.7101 272.403 96.3001 273.303 97.2301C274.203 98.1601 275.733 98.6301 277.893 98.6301H287.083V109.28H275.423C269.973 109.28 265.993 108.01 263.483 105.47C260.983 102.93 259.733 99.0101 259.733 93.7001V51.9001Z" fill="black"/>
<path d="M347.852 109.28H337.203L335.852 100.54C333.832 103.38 331.252 105.66 328.122 107.38C324.982 109.1 321.323 109.96 317.143 109.96C311.913 109.96 307.243 108.78 303.133 106.43C299.023 104.08 295.812 100.68 293.492 96.2302C291.172 91.7802 290.022 86.5703 290.022 80.6003C290.022 74.6303 291.202 69.6402 293.552 65.1902C295.902 60.7402 299.132 57.3102 303.242 54.8802C307.352 52.4502 311.983 51.2402 317.143 51.2402C321.403 51.2402 325.102 52.0402 328.232 53.6502C331.372 55.2602 333.912 57.4803 335.852 60.3203L337.312 51.9102H347.842V109.29L347.852 109.28ZM335.862 80.8102C335.862 75.1302 334.333 70.5002 331.263 66.9102C328.203 63.3202 324.162 61.5302 319.162 61.5302C314.162 61.5302 310.122 63.3003 307.062 66.8503C304.003 70.4003 302.462 74.9802 302.462 80.5802C302.462 86.1802 303.993 90.8702 307.062 94.4202C310.122 97.9702 314.162 99.7402 319.162 99.7402C324.162 99.7402 328.203 97.9802 331.263 94.4702C334.323 90.9602 335.862 86.4002 335.862 80.8002V80.8102Z" fill="black"/>
<path d="M383.943 109.949C378.263 109.949 373.263 108.729 368.923 106.309C364.593 103.879 361.243 100.429 358.893 95.9395C356.543 91.4595 355.363 86.2995 355.363 80.4695C355.363 74.6395 356.563 69.5195 358.953 65.1195C361.343 60.7095 364.723 57.2995 369.093 54.8695C373.463 52.4395 378.523 51.2295 384.283 51.2295C391.453 51.2295 397.323 53.1195 401.873 56.8895C406.433 60.6595 409.273 65.7995 410.393 72.2995H397.953C397.133 69.0095 395.483 66.3995 393.023 64.4595C390.553 62.5195 387.533 61.5495 383.943 61.5495C379.083 61.5495 375.183 63.3095 372.233 66.8195C369.283 70.3295 367.803 74.8895 367.803 80.4895C367.803 86.0895 369.283 90.7795 372.233 94.3295C375.183 97.8795 379.093 99.6495 383.943 99.6495C387.683 99.6495 390.783 98.6595 393.243 96.6795C395.713 94.6995 397.313 92.0295 398.063 88.6695H410.393C409.273 95.3195 406.393 100.529 401.763 104.299C397.133 108.069 391.193 109.96 383.943 109.96V109.949Z" fill="black"/>
<path d="M429.993 30.8301V79.9201L456.213 51.9001H470.223L448.813 74.9901L471.563 109.28H457.223L440.193 83.8401L429.993 94.6001V109.28H417.893V30.8301H429.993Z" fill="black"/>
<path d="M487.433 97.6801C490.013 99.5801 493.353 100.54 497.463 100.54C501.123 100.54 504.093 99.8501 506.373 98.4701C508.653 97.0901 509.793 95.2401 509.793 92.9201C509.793 90.9801 509.273 89.5201 508.223 88.5501C507.173 87.5801 505.773 86.8901 504.023 86.4801C502.263 86.0701 499.563 85.6401 495.893 85.1901C490.883 84.5901 486.763 83.7902 483.513 82.7802C480.263 81.7702 477.643 80.1601 475.673 77.9601C473.693 75.7601 472.703 72.7901 472.703 69.0501C472.703 65.5401 473.693 62.4201 475.673 59.6901C477.653 56.9601 480.383 54.8501 483.853 53.3601C487.323 51.8601 491.263 51.1201 495.673 51.1201C502.923 51.1201 508.803 52.7301 513.323 55.9401C517.843 59.1501 520.293 63.6701 520.663 69.5001H508.893C508.593 66.8801 507.283 64.7401 504.973 63.0501C502.653 61.3701 499.743 60.5301 496.233 60.5301C492.723 60.5301 489.883 61.2001 487.713 62.5501C485.543 63.8901 484.463 65.7201 484.463 68.0401C484.463 69.7601 485.003 71.0501 486.093 71.9101C487.173 72.7701 488.543 73.3701 490.183 73.7001C491.823 74.0401 494.483 74.4301 498.143 74.8801C503.073 75.4001 507.223 76.2101 510.583 77.2901C513.943 78.3701 516.633 80.0901 518.653 82.4501C520.673 84.8001 521.683 88.0002 521.683 92.0302C521.683 95.6202 520.633 98.7701 518.543 101.5C516.453 104.23 513.573 106.32 509.913 107.78C506.253 109.24 502.143 109.97 497.583 109.97C489.883 109.97 483.663 108.23 478.923 104.76C474.183 101.28 471.733 96.4801 471.583 90.3601H483.243C483.463 93.3501 484.863 95.7901 487.443 97.7001L487.433 97.6801Z" fill="black"/>
<path d="M106.108 27.3968L124.987 8.59385C128.167 5.42636 125.92 0 121.44 0H65.7382C65.7382 0 35.8806 0 16.2321 23.6615C15.5632 24.4691 14.907 25.2768 14.2255 26.0592C13.4053 27.0183 11.9919 28.7471 10.364 31.1701C-0.867322 47.8278 -2.94949 68.9275 4.01645 87.7683C7.17131 96.2739 12.257 106.407 20.0432 113.171L28.8642 104.224C34.4798 98.5327 35.6156 89.9389 32.0064 82.8089C29.7349 78.3163 27.9556 72.1707 28.2458 64.1195C28.5361 56.0682 31.1609 47.9792 36.2844 41.6316C41.7108 34.9054 50.9987 28.1919 66.4575 28.3686L106.108 27.4221V27.3968Z" fill="black"/>
<path d="M20.7879 112.603L1.90918 131.406C-1.27093 134.573 0.97541 139.999 5.45532 139.999H61.1575C61.1575 139.999 91.0152 139.999 110.664 116.338C111.333 115.53 111.989 114.723 112.67 113.94C113.49 112.981 114.904 111.252 116.532 108.829C127.763 92.1717 129.845 71.0719 122.879 52.2311C119.724 43.7256 114.639 33.5922 106.853 26.8281L98.0316 35.7753C92.416 41.4667 91.2802 50.0605 94.8894 57.1905C97.1609 61.6831 98.9402 67.8287 98.65 75.8799C98.3597 83.9312 95.7349 92.0202 90.6114 98.3678C85.185 105.094 75.8971 111.808 60.4382 111.631L20.7879 112.577V112.603Z" fill="black"/>
</svg>
