<svg viewBox="0 0 1024 1024" xmlns="http://www.w3.org/2000/svg" xmlns:xlink="http://www.w3.org/1999/xlink"><defs><linearGradient id="a" x1="50.31%" x2="50%" y1="74.74%" y2="0%"><stop offset="0" stop-color="#e26b6b"/><stop offset=".5028" stop-color="#f5bcf4"/><stop offset="1" stop-color="#8690e1"/></linearGradient><linearGradient id="b" x1="50%" x2="50%" y1="0%" y2="100%"><stop offset="0" stop-color="#8c9ce7"/><stop offset="1" stop-color="#4353a4"/></linearGradient><linearGradient id="c" x1="50%" x2="50%" y1="0%" y2="100%"><stop offset="0" stop-color="#d1d9ff"/><stop offset="1" stop-color="#8395eb"/></linearGradient><circle id="d" cx="622" cy="663" r="60"/><filter id="e" height="260%" width="260%" x="-80%" y="-80%"><feOffset in="SourceAlpha" result="shadowOffsetOuter1"/><feGaussianBlur in="shadowOffsetOuter1" result="shadowBlurOuter1" stdDeviation="32"/><feColorMatrix in="shadowBlurOuter1" values="0 0 0 0 1 0 0 0 0 1 0 0 0 0 1 0 0 0 1 0"/></filter><linearGradient id="f" x1="49.87%" x2="49.87%" y1="3.62%" y2="77.75%"><stop offset="0" stop-color="#b0ddf1"/><stop offset="1" stop-color="#325c82"/></linearGradient><linearGradient id="g" x1="100%" x2="72.45%" y1="0%" y2="85.2%"><stop offset="0" stop-color="#1d3a6d"/><stop offset="1" stop-color="#467994"/></linearGradient><linearGradient id="h" x1="49.48%" x2="49.87%" y1="11.66%" y2="77.75%"><stop offset="0" stop-color="#b9c9f7"/><stop offset="1" stop-color="#301863"/></linearGradient><linearGradient id="i"><stop offset="0" stop-color="#2d3173"/><stop offset="1" stop-color="#7f90e0"/></linearGradient><linearGradient id="j" x1="91.59%" x2="70.98%" xlink:href="#i" y1="5.89%" y2="88%"/><linearGradient id="k" x1="70.98%" x2="70.98%" xlink:href="#i" y1="9.88%" y2="88%"/></defs><g fill="none" fill-rule="evenodd"><path d="m0 0h1024v1024h-1024z" fill="url(#a)"/><g transform="translate(211 420)"><path d="m65 0a2 2 0 0 1 2 2v23h-4v-23c0-1.1.9-2 2-2z" fill="#8c9ce7"/><path d="m64 24h2a3 3 0 0 1 3 3v2h-8v-2a3 3 0 0 1 3-3z" fill="#5263b8"/><path d="m65 108h40v-40a40 40 0 1 0 -80 0v40z" fill="url(#b)"/><path d="m0 118 30-6v106h-30z" fill="#2e3d87"/><path d="m60 118-30-6v106h30z" fill="#301862"/><path d="m45 107v-39a40.02 40.02 0 0 1 30.03-38.75c17.24 4.4 29.97 19.86 29.97 38.25v39.5z" fill="url(#c)"/><path d="m15 78 50-10 2 2v108h-52z" fill="#4353a4"/><path d="m115 78-50-10v2 108h50z" fill="#8c9ce7"/><path d="m75 118 30-6v106h-30z" fill="#4353a4"/><path d="m135 118-30-6v106h30z" fill="#8c9ce7"/></g><use fill="#000" filter="url(#e)" xlink:href="#d"/><use fill="#fff" xlink:href="#d"/><g transform="translate(146 245)"><path d="m169.12 450.57c23.1 13.47-25.27 81.95-145.12 205.43h649c-344.06-141.7-512.02-210.17-503.88-205.43z" fill="url(#f)"/><path d="m178.5 538.5c-40.67 28.67 21.17 67.83 185.5 117.5h-364z" fill="url(#g)"/></g><path d="m1024 685h-1024v-284.92c77.3-33.68 155.26-70.08 297.4-70.08 250 0 250.76 125.25 500 125 84.03-.08 160.02-18.2 226.6-40.93z" fill="url(#h)" transform="translate(0 255)"/><path d="m251 506a8 8 0 0 1 8 8v15l-16 1v-16a8 8 0 0 1 8-8z" fill="#1f2a68"/><path d="m253 506.25a8 8 0 0 0 -6 7.75v15.75l-4 .25v-16a8 8 0 0 1 10-7.75z" fill="#7c8cda"/><path d="m251 546a8 8 0 0 1 8 8v15l-16 1v-16a8 8 0 0 1 8-8z" fill="#1f2a68"/><path d="m253 546.25a8 8 0 0 0 -6 7.75v15.75l-4 .25v-16a8 8 0 0 1 10-7.75z" fill="#7c8cda"/><path d="m301 506a8 8 0 0 1 8 8v16l-16-1v-15a8 8 0 0 1 8-8z" fill="#5263b8"/><path d="m305 529.75v-15.75a8 8 0 0 0 -6-7.75 8.01 8.01 0 0 1 10 7.75v16z" fill="#293781"/><g transform="translate(0 636)"><path d="m1024 356h-1024v-170.18c137.51-15.4 203.1-50.49 356.67-60.1 198.57-12.42 250.04-125.13 500.07-125.13 72.78-.01 124.44 10.61 167.26 25.67z" fill="url(#h)"/><g fill="url(#j)"><path d="m1024 26.21v299.79h-167.09c99.31-86.5 112.63-140.75 39.97-162.78-186.64-56.58-101.76-162.64-39.98-162.64 72.7 0 124.3 10.6 167.09 25.63z"/><path d="m1024 199.32v126.68h-167c99.31-86.6 112.63-140.94 39.97-163z"/></g></g><circle cx="566" cy="599" fill="#fff" opacity=".1" r="110"/><circle cx="669" cy="539" fill="#fff" opacity=".1" r="60"/><g transform="translate(0 705)"><path d="m0 319v-250.07c67.12-33.24 129.55-68.93 263-68.93 250 0 331.46 162.6 530 175 107.42 6.71 163-26.77 231-58.92v202.92z" fill="url(#h)"/><path d="m353.02 319h-353.02v-250.07c67.12-33.24 129.55-68.93 263-68.93 71.14 0 151.5 12.76 151.5 70.5 0 54.5-45.5 79.72-112.5 109-82.26 35.95-54.57 111.68 51.02 139.5z" fill="url(#j)"/><path d="m353.02 319h-353.02v-14.8l302-124.7c-82.26 35.95-54.57 111.68 51.02 139.5z" fill="url(#k)"/></g><g fill="#fff"><circle cx="414" cy="799" opacity=".1" r="70"/><circle cx="479" cy="745" opacity=".1" r="30"/><path d="m554.67 131.48a9.46 9.46 0 0 1 13.33 0 9.46 9.46 0 0 0 13.33 0l13.33-13.24a28.39 28.39 0 0 1 40 0l10 9.93a14.2 14.2 0 0 0 20 0 14.2 14.2 0 0 1 20 0l.6.6a31.8 31.8 0 0 1 9.4 22.56h-146.66v-3.84c0-6.01 2.4-11.78 6.67-16.01zm196.33-123.23c11.07-11 28.93-11 40 0l10 9.94a14.19 14.19 0 0 0 20 0 14.19 14.19 0 0 1 20 0 16.36 16.36 0 0 0 21.3 1.5l8.7-6.47a33.47 33.47 0 0 1 40 0l4.06 3.03a39.6 39.6 0 0 1 15.94 31.75h-200c0-12.72 8.93-28.75 20-39.75zm-736.9 66.89.9-.9a21.29 21.29 0 0 1 30 0 21.29 21.29 0 0 0 30 0l10-9.93a35.48 35.48 0 0 1 50 0l15 14.9a14.2 14.2 0 0 0 20 0 14.2 14.2 0 0 1 20 0c6.4 6.35 10 15 10 24.02v5.77h-200c0-12.71 5.07-24.9 14.1-33.86z" opacity=".15" transform="translate(49 214)"/></g></g></svg>