<svg id="Layer_1" data-name="Layer 1" xmlns="http://www.w3.org/2000/svg" viewBox="0 0 256 256"><defs><style>.cls-1{fill:#231f20;}</style></defs><title>minimal national park 5</title><path class="cls-1" d="M230.5,153.93l-10.65,1.33-17.77-4.32a3.48,3.48,0,0,0-.79-.09H190.94a3.48,3.48,0,0,0-2.62,1.2l-7.53,8.7a3.29,3.29,0,0,0-.52.81l-2.91,6.22c-4.54,3.23-7.44,5.54-8.64,6.9a32.44,32.44,0,0,1-6.43,1.36,3.54,3.54,0,0,0-2.33,1.33c-2.07,2.7-5,6-6.09,6.67-2.85,1.71-3.5,6-1.9,12.88l-3.11,5.91H129.29l-11.17-2.9-5.28-6.49-2.65-3.64,2.52-6.46,2.39-4.18a29.38,29.38,0,0,0,3.48.38,3.43,3.43,0,0,0,.79,1.65l6.29,6.8a3.45,3.45,0,0,0,2.55,1.12h.31l11.38-1a3.47,3.47,0,0,0-.63-6.92l-9.68.88-4-4.29,0,0a101.32,101.32,0,0,1,9.51-6.73l7.52-5.65a3.39,3.39,0,0,0,.77-.79l7.23-10.4,7.78-6.14c11.22-1.44,12.67-2.41,13.23-2.78S173.55,144,182.13,133l9.79-7.67a3.37,3.37,0,0,0,2.38-2.7l3.23-4.66,8.65-4.37a3.39,3.39,0,0,0,1.49-1.46l7.77-14.46a47.48,47.48,0,0,1,7.49-1.78h8a3.48,3.48,0,0,0,0-7h-8c-2.67,0-9,1.92-10.91,2.51a3.47,3.47,0,0,0-2,1.67l-7.92,14.77-7.65,3.86v-6.35a3.43,3.43,0,0,0,1.26.27,3.47,3.47,0,0,0,2.64-5.73L180.15,78.77l-.09-.06a3.24,3.24,0,0,0-.85-.66c-.09,0-.15-.11-.24-.15a3.17,3.17,0,0,0-.88-.23c-.14,0-.26-.1-.4-.11s-.1,0-.14,0-.11,0-.16,0l-28.24,1V63.08a3.47,3.47,0,0,0-3.47-3.48h-6.22V47.78h6.22a3.47,3.47,0,0,0,2.48-5.9L129,22.29a3.49,3.49,0,0,0-2.49-1.05h0A3.5,3.5,0,0,0,124,22.32L105.35,41.91a3.48,3.48,0,0,0,2.52,5.87h6.22V59.6h-6.22a3.48,3.48,0,0,0-3.48,3.52l.14,12.21v87l-.34.25a3.45,3.45,0,0,0-1,1.18l-7.79,15a3.38,3.38,0,0,0-.31.84L92.28,192h-1l-.39-.57L86.8,186A3.46,3.46,0,0,0,84,184.65H77.1a3.48,3.48,0,0,0-2.64,1.22L71,190l-2,2h-37a3.47,3.47,0,1,0,0,6.94h31.5a3.5,3.5,0,0,0,.94,2.38l6.93,7.35a3.46,3.46,0,0,0,2.53,1.09H86.48a3.4,3.4,0,0,0,1-.13L96,207.19a3.47,3.47,0,0,0,1.92-5.27l-2-3h12.44l5.07,6.25a3.54,3.54,0,0,0,1.83,1.17l12.7,3.29a3.15,3.15,0,0,0,.87.11h13.89l-3.87,4a2.91,2.91,0,0,0-.53.72L133,223.89a3.48,3.48,0,0,0,2.18,5.07l22.53,5.69a3.4,3.4,0,0,0,2.36-.24l18.68-9.07,17.89-5.42,14.14,7.69a3.47,3.47,0,0,0,3.32-6.1l-15.41-8.38a3.46,3.46,0,0,0-2.67-.27l-6.13,1.85,2.43-7.31a3.43,3.43,0,0,0,.18-1.1v-8.23l9.74-2.88h17.84a3.47,3.47,0,1,0,0-6.94H201.76a3.29,3.29,0,0,0-1,.14l-12.7,3.76a3.47,3.47,0,0,0-2.48,3.33v10.26l-3.11,9.34a3.29,3.29,0,0,0,0,1.89l-5.95,1.8a4.5,4.5,0,0,0-.51.2l-17.78,8.64-16.9-4.27,2.86-5.06,9.28-9.56h0a3.65,3.65,0,0,0,.58-.8l4.7-8.94a3.45,3.45,0,0,0,.29-2.5,23.9,23.9,0,0,1-.9-6.94,43.06,43.06,0,0,0,6.46-6.8c7.81-1.15,9-2.89,9.39-3.54a67.84,67.84,0,0,1,6.38-5l8.89,5a3.51,3.51,0,0,0,1.7.45H205a3.48,3.48,0,0,0,0-7H191.85l-7.22-4.07,1.73-3.7,6.17-7.14h8.36l17.91,4.37a3.6,3.6,0,0,0,1.27.08l11.29-1.41a3.48,3.48,0,0,0-.86-6.9ZM117.56,78.76h24.65l-.53,0a3.49,3.49,0,0,0-2.34,1l-19.88,20a3.47,3.47,0,0,0,2.46,5.92h.67v40L119,146.91a3.57,3.57,0,0,0-1.71,1.29l-5.82,8.25V78.76ZM121,66.55h11.49v5.27H121Zm64.31,29H167.29l10-9.45Zm-31.58,3.26H130.27l13-13.1,25.18-.86Zm-24.23,6.94H153.6v34.66l-.47.83H140a3.68,3.68,0,0,0-.66.06l-8.61,1.66a2.42,2.42,0,0,0-.46.13l-.76.25Zm48,22.11a3.35,3.35,0,0,0-.59.6c-3.54,4.52-7.91,9.87-9,10.91a67.51,67.51,0,0,1-7.41,1.36V102.46h26.93V120Zm-35.3-61.28v5.27h-2.75V66.55ZM126.54,29.72l10.88,11.11H116ZM121,47.78h11.49V59.6H121Zm-6.94,18.77v5.27h-2.65l-.06-5.27Zm-12.32,115L109,167.64l6.11-4.57a3.52,3.52,0,0,0,.76-.78l6.47-9.17,10-3.41,8-1.56h6.72L146,149a3.79,3.79,0,0,0-.7.74l-7.2,10.36-6.88,5.17A111.7,111.7,0,0,0,121,172.53a21.55,21.55,0,0,1-6.91-.66,3.51,3.51,0,0,0-3.81,1.66l-3.76,6.59a2.77,2.77,0,0,0-.22.46l-3.3,8.47a3.46,3.46,0,0,0,.24,3H99.4ZM86,202.83H75.33L71.73,199l1.06-1,0-.05,3.23-3.23,2.63-3.08h3.6l2.93,3.87,4.28,6.36Z"/><path class="cls-1" d="M62.84,213.51l-7.55-3.33L51.45,206A3.44,3.44,0,0,0,48.29,205l-8,1.43-8-1.52a3.49,3.49,0,0,0-3.09,1l-6.53,6.52a3.47,3.47,0,0,0-.07,4.84l6.94,7.35a3.48,3.48,0,0,0,2.22,1.08l21.81,1.93.31,0a3.45,3.45,0,0,0,2.42-1l7.61-7.39a3.47,3.47,0,0,0-1-5.67Zm-10.29,7-18.92-1.67-3.71-3.94L32.76,212l6.87,1.29a3.29,3.29,0,0,0,1.25,0l6.76-1.2,3,3.3a3.36,3.36,0,0,0,1.15.82l3.5,1.54Z"/><path class="cls-1" d="M136.06,124a3.47,3.47,0,0,0,3.47-3.47v-7.07a3.48,3.48,0,1,0-6.95,0v7.07A3.47,3.47,0,0,0,136.06,124Z"/><path class="cls-1" d="M145.85,124a3.47,3.47,0,0,0,3.48-3.47v-7.07a3.48,3.48,0,1,0-7,0v7.07A3.47,3.47,0,0,0,145.85,124Z"/><path class="cls-1" d="M174.76,108.31a3.47,3.47,0,0,0-3.47,3.47v6.84a3.48,3.48,0,1,0,7,0v-6.84A3.48,3.48,0,0,0,174.76,108.31Z"/><path class="cls-1" d="M153.47,57.16h38.39a3.47,3.47,0,0,0,0-6.94H153.47a3.47,3.47,0,0,0,0,6.94Z"/><path class="cls-1" d="M160.31,47.78a3.45,3.45,0,0,0,1.36-.28l23-9.79a3.47,3.47,0,1,0-2.73-6.39l-23,9.79a3.47,3.47,0,0,0,1.37,6.67Z"/><path class="cls-1" d="M161.67,59.88a3.47,3.47,0,1,0-2.73,6.39l23,9.79a3.47,3.47,0,1,0,2.73-6.38Z"/><path class="cls-1" d="M59.36,57.16H97.75a3.47,3.47,0,1,0,0-6.94H59.36a3.47,3.47,0,0,0,0,6.94Z"/><path class="cls-1" d="M66.58,37.71l23,9.79a3.42,3.42,0,0,0,1.36.28,3.47,3.47,0,0,0,1.36-6.67l-23-9.79a3.47,3.47,0,1,0-2.73,6.39Z"/><path class="cls-1" d="M89.56,59.88l-23,9.8a3.47,3.47,0,1,0,2.73,6.38l23-9.79a3.47,3.47,0,0,0-2.72-6.39Z"/></svg>