<svg id="Layer_1" data-name="Layer 1" xmlns="http://www.w3.org/2000/svg" viewBox="0 0 256 256"><defs><style>.cls-1{fill:#787878;}</style></defs><title>minimal national park 13</title><path class="cls-1" d="M233,226.87H23a3.48,3.48,0,1,1,0-7H233a3.48,3.48,0,1,1,0,7Z"/><path class="cls-1" d="M45.1,226.87a3.47,3.47,0,0,1-2.91-5.37l67.64-104.17a3.6,3.6,0,0,1,5.82,0L183.29,221.5a3.47,3.47,0,1,1-5.82,3.79l-64.73-99.7L48,225.29A3.49,3.49,0,0,1,45.1,226.87Z"/><path class="cls-1" d="M206.05,226.87a3.48,3.48,0,0,1-3.48-3.48V122.24a3.48,3.48,0,1,1,7,0V223.39A3.47,3.47,0,0,1,206.05,226.87Z"/><path class="cls-1" d="M217.81,142.78a3.47,3.47,0,0,1-2.31-.87l-9.45-8.38-9.46,8.38a3.47,3.47,0,1,1-4.61-5.2l11.76-10.42a3.49,3.49,0,0,1,4.61,0l11.76,10.42a3.47,3.47,0,0,1-2.3,6.07Z"/><path class="cls-1" d="M189.34,163.62a3.47,3.47,0,0,1-2.22-6.14l16.71-13.89a3.48,3.48,0,0,1,4.44,0L225,157.48a3.47,3.47,0,1,1-4.44,5.34l-14.48-12-14.49,12A3.46,3.46,0,0,1,189.34,163.62Z"/><path class="cls-1" d="M227.7,184.47a3.48,3.48,0,0,1-2.18-.77l-19.47-15.62L186.57,183.7a3.47,3.47,0,1,1-4.35-5.42l21.65-17.36a3.47,3.47,0,0,1,4.35,0l21.65,17.36a3.48,3.48,0,0,1-2.17,6.19Z"/><path class="cls-1" d="M233,207a3.45,3.45,0,0,1-2.32-.89l-24.67-22.21-24.68,22.21a3.47,3.47,0,0,1-4.65-5.16l27-24.31a3.5,3.5,0,0,1,4.65,0l27,24.31a3.47,3.47,0,0,1-2.33,6Z"/><path class="cls-1" d="M158.39,193a3.47,3.47,0,0,1-3.47-3.47V107.19a3.47,3.47,0,0,1,6.94,0v82.34A3.47,3.47,0,0,1,158.39,193Z"/><path class="cls-1" d="M172.93,130.16a3.47,3.47,0,0,1-2.2-.78l-12.34-10.1-12.34,10.1a3.47,3.47,0,1,1-4.4-5.37l14.54-11.9a3.48,3.48,0,0,1,4.4,0L175.13,124a3.47,3.47,0,0,1-2.2,6.16Z"/><path class="cls-1" d="M137.74,154a3.47,3.47,0,0,1-2.12-6.23l20.65-15.86a3.47,3.47,0,0,1,4.23,0l20.66,15.86a3.47,3.47,0,0,1-4.23,5.51L158.39,139l-18.54,14.24A3.43,3.43,0,0,1,137.74,154Z"/><path class="cls-1" d="M185.16,177.77a3.44,3.44,0,0,1-2.06-.68l-24.71-18.3-13.3,9.86a3.47,3.47,0,0,1-4.14-5.58l15.37-11.39a3.47,3.47,0,0,1,4.13,0l26.78,19.83a3.47,3.47,0,0,1-2.07,6.26Z"/><path class="cls-1" d="M191.77,203.56a3.46,3.46,0,0,1-2.22-.8l-31.16-25.92-5,4.19a3.47,3.47,0,0,1-4.44-5.34l7.25-6a3.47,3.47,0,0,1,4.44,0L194,197.42a3.47,3.47,0,0,1-2.22,6.14Z"/><path class="cls-1" d="M47.5,223.18A3.47,3.47,0,0,1,44,219.71V133.42a3.47,3.47,0,0,1,6.94,0v86.29A3.47,3.47,0,0,1,47.5,223.18Z"/><path class="cls-1" d="M60.23,154a3.45,3.45,0,0,1-2.2-.78L47.5,144.56,37,153.18a3.47,3.47,0,0,1-4.39-5.38L45.3,137.38a3.48,3.48,0,0,1,4.4,0l12.73,10.42a3.47,3.47,0,0,1-2.2,6.15Z"/><path class="cls-1" d="M65.58,174.81a3.47,3.47,0,0,1-2.11-.72l-16-12.27-16,12.27a3.48,3.48,0,0,1-4.24-5.51l18.09-13.89a3.5,3.5,0,0,1,4.23,0L67.7,168.58a3.47,3.47,0,0,1-2.12,6.23Z"/><path class="cls-1" d="M24.06,195.65A3.47,3.47,0,0,1,22,189.39L45.43,172a3.5,3.5,0,0,1,4.13,0L69.25,186.6a3.47,3.47,0,0,1-4.13,5.58l-17.62-13L26.13,195A3.49,3.49,0,0,1,24.06,195.65Z"/><path class="cls-1" d="M134.08,84.08a3.47,3.47,0,0,1-3.48-3.47V63a3.48,3.48,0,0,1,7,0V80.61A3.47,3.47,0,0,1,134.08,84.08Z"/><path class="cls-1" d="M141.35,75.29H126.81a3.47,3.47,0,1,1,0-6.94h14.54a3.47,3.47,0,0,1,0,6.94Z"/><path class="cls-1" d="M67.18,70.58a3.47,3.47,0,0,1-3.47-3.47V49.53a3.47,3.47,0,0,1,6.94,0V67.11A3.47,3.47,0,0,1,67.18,70.58Z"/><path class="cls-1" d="M74.45,61.79H59.91a3.47,3.47,0,0,1,0-6.94H74.45a3.47,3.47,0,0,1,0,6.94Z"/><path class="cls-1" d="M103.25,75a3.15,3.15,0,1,1-3.14-3.15A3.15,3.15,0,0,1,103.25,75Z"/><path class="cls-1" d="M76.81,133.42a3.15,3.15,0,1,1-3.15-3.15A3.15,3.15,0,0,1,76.81,133.42Z"/><path class="cls-1" d="M41.07,99.85a3.15,3.15,0,1,1-3.14-3.15A3.14,3.14,0,0,1,41.07,99.85Z"/><path class="cls-1" d="M80.74,101.76a3.15,3.15,0,1,1-3.14-3.14A3.14,3.14,0,0,1,80.74,101.76Z"/><path class="cls-1" d="M128.43,46.39a3.15,3.15,0,1,1-3.15-3.15A3.15,3.15,0,0,1,128.43,46.39Z"/><path class="cls-1" d="M167.24,32.28a3.15,3.15,0,1,1-3.15-3.15A3.15,3.15,0,0,1,167.24,32.28Z"/><path class="cls-1" d="M168.3,93a3.15,3.15,0,1,1-3.15-3.15A3.15,3.15,0,0,1,168.3,93Z"/><path class="cls-1" d="M131.57,99.85a3.15,3.15,0,1,1-3.14-3.15A3.13,3.13,0,0,1,131.57,99.85Z"/><path class="cls-1" d="M50.64,38.57a3.15,3.15,0,1,1-3.14-3.14A3.14,3.14,0,0,1,50.64,38.57Z"/><path class="cls-1" d="M209.19,58.32a3.15,3.15,0,1,1-3.14-3.14A3.15,3.15,0,0,1,209.19,58.32Z"/><path class="cls-1" d="M206.29,104.91a3.15,3.15,0,1,1-3.15-3.15A3.15,3.15,0,0,1,206.29,104.91Z"/><path class="cls-1" d="M112.74,226.87a3.49,3.49,0,0,1-3.47-3.48V119.22a3.47,3.47,0,0,1,6.93-.26c5.26,70.41,21.51,76.37,21.67,76.4a3.47,3.47,0,0,1,1.86,5.87L115.2,225.84A3.47,3.47,0,0,1,112.74,226.87Zm3.47-59.51V215l15.4-15.46C127.26,195.88,121.17,187.34,116.21,167.36Z"/></svg>