<svg id="Layer_1" data-name="Layer 1" xmlns="http://www.w3.org/2000/svg" viewBox="0 0 256 256"><defs><style>.cls-1{fill:#231f20;}</style></defs><title>minimal national park 3</title><path class="cls-1" d="M104.71,222.66a3.47,3.47,0,1,0,0,6.94h4.72a3.47,3.47,0,0,0,0-6.94Z"/><path class="cls-1" d="M169.69,219.43a3.47,3.47,0,0,0-3.47-3.48h-12a29.51,29.51,0,0,0-8.7-4.16,3.47,3.47,0,0,0-2.08,6.63c4.44,1.39,6.79,3,8,4.24h-28.6a3.47,3.47,0,0,0,0,6.94h32.94a3.47,3.47,0,0,0,3.25-2.24,8.15,8.15,0,0,0,.18-4.46h7A3.47,3.47,0,0,0,169.69,219.43Z"/><path class="cls-1" d="M223.87,216.06c-.33-.08-25.61-6.61-53.7-12.12a19.05,19.05,0,0,0,2-8.08,14.58,14.58,0,0,0-22.43-12.33c-5.37-31.84,3-64.49,6.25-75.41a33.28,33.28,0,0,0,47.16-30.37,33.45,33.45,0,0,0-33.41-33.41l-1.18,0a19.7,19.7,0,0,0-16.87-9.57,19.39,19.39,0,0,0-10.09,2.83A28.33,28.33,0,0,0,135.67,36a22.26,22.26,0,0,0-43.16-4A27.12,27.12,0,0,0,62.77,57.37,22.25,22.25,0,1,0,90.88,91.06,22.51,22.51,0,0,0,99.57,98c1.82,8.52,9.53,48,4.88,81.22a12.45,12.45,0,0,0-3.45-.49,12.64,12.64,0,0,0-12.63,12.62,13,13,0,0,0,3.07,7.85c-8.57,3-12.43,7.69-14,10.49-40.35,3.93-46.66,13-47.56,15A3.47,3.47,0,0,0,33,229.6H63.71l-4.09,3.59a3.47,3.47,0,0,0,2.29,6.08H173.15a3.47,3.47,0,0,0,0-6.94h-102l3.11-2.73H94.81a3.47,3.47,0,0,0,0-6.94H45.48c8.64-3,24.89-6.41,54.9-7.5l1.57-.06a3.45,3.45,0,0,0,3.34-3.58,3.5,3.5,0,0,0-3.61-3.36l-1.56.06c-4.52.16-8.72.39-12.68.65,2.65-1.9,6.83-3.81,13.32-4.8,3.5,5.44,12.88,9,24.16,9,9.2,0,17.28-2.38,21.82-6.3,16,2.54,33,6.06,46.75,9.15H177.55a3.48,3.48,0,0,0,0,7H223a3.48,3.48,0,0,0,.87-6.84ZM106.32,200a3.54,3.54,0,0,0-.32-.44,3.46,3.46,0,0,0-3.7-2.69c-1,.1-1.85.25-2.74.39-2.17-1.24-4.24-4-4.24-5.89a5.69,5.69,0,0,1,5.68-5.68,5.59,5.59,0,0,1,3.17,1l.06,0a3.48,3.48,0,0,0,2.24,1.47,4.46,4.46,0,0,0,.63.05,3.47,3.47,0,0,0,3.41-2.85c5.92-32.48-.66-71.5-3.44-85.41.54,0,1.08.09,1.63.09a22.23,22.23,0,0,0,10.45-2.61,3.49,3.49,0,0,0,.81-.66,3.66,3.66,0,0,0,1.1-.47,22.38,22.38,0,0,0,6.11-6.08,3.48,3.48,0,0,0-5.76-3.89,15.44,15.44,0,0,1-4.21,4.2,3.18,3.18,0,0,0-.55.55,3.09,3.09,0,0,0-.77.23,15.07,15.07,0,0,1-7.18,1.79,15.39,15.39,0,0,1-14.34-10,.35.35,0,0,0,0-.08,15.39,15.39,0,0,1-.93-5.27,15.21,15.21,0,0,1,.31-3.09,3.48,3.48,0,0,0-6.81-1.4,22.5,22.5,0,0,0-.45,4.49,22.07,22.07,0,0,0,1,6.16A15.3,15.3,0,1,1,67.66,62.64l.06,0A15.37,15.37,0,0,1,74,61.26a3.48,3.48,0,0,0,0-6.95,22.44,22.44,0,0,0-3.86.36A20.29,20.29,0,0,1,100.8,41.9a3.47,3.47,0,1,0,3.75-5.85,27.28,27.28,0,0,0-5.2-2.56,15.26,15.26,0,0,1,29.13,2,28.54,28.54,0,0,0-5.36.87,3.47,3.47,0,0,0,.91,6.82,3.63,3.63,0,0,0,.92-.12,21.23,21.23,0,0,1,6-.77l.48,0a3.55,3.55,0,0,0,.71.19,21.37,21.37,0,0,1,8.22,2.16c.09,0,.18,0,.26.08a21.76,21.76,0,0,1,10.18,11.13,3.48,3.48,0,0,0,3.22,2.17,3.36,3.36,0,0,0,1.31-.26,3.47,3.47,0,0,0,1.91-4.52A28.72,28.72,0,0,0,149,42.05a12.22,12.22,0,0,1,2.64-.32,12.73,12.73,0,0,1,11.65,7.65l0,0a12.56,12.56,0,0,1,1,5,3.47,3.47,0,0,0,6.94,0,20,20,0,0,0-.26-3.1,26.44,26.44,0,1,1-12.68,50.23,19.6,19.6,0,0,0,1-6.21,3.48,3.48,0,1,0-6.95,0,12.77,12.77,0,0,1-1.43,5.85,1.37,1.37,0,0,0-.19.23,12.67,12.67,0,0,1-22.83-1.13,3.47,3.47,0,0,0-6.4,2.7,19.65,19.65,0,0,0,18.13,12,19.31,19.31,0,0,0,7.47-1.54c-4.18,16.26-9.9,47.2-3.21,77.17a3.47,3.47,0,0,0,3.38,2.72,3.29,3.29,0,0,0,.76-.09,2.83,2.83,0,0,0,.36-.16,3.39,3.39,0,0,0,2.58-1.5,7.67,7.67,0,0,1,14.09,4.21,11.57,11.57,0,0,1-2.3,6.69c-5.62-1.05-11.27-2-16.79-2.89-.13,0-.24,0-.37,0a3.74,3.74,0,0,0-.75,0,3.44,3.44,0,0,0-.55.15,3.39,3.39,0,0,0-.67.31,3.81,3.81,0,0,0-.5.4,2.1,2.1,0,0,0-.33.26c-2.19,2.56-8.77,5.32-18,5.32C115.17,206.16,107.68,203,106.32,200Z"/><path class="cls-1" d="M155.86,67.92h0a3.48,3.48,0,0,0,3.48-3.42q0-1.53-.12-3a3.47,3.47,0,0,0-6.92.61,19.91,19.91,0,0,1,.09,2.32A3.46,3.46,0,0,0,155.86,67.92Z"/><path class="cls-1" d="M92.51,58.83a11.51,11.51,0,0,0-4.57,6.06,3.47,3.47,0,1,0,6.65,2,4.56,4.56,0,0,1,1.59-2.15,3.47,3.47,0,0,0-3.67-5.9Z"/><path class="cls-1" d="M167.4,100.49a23.77,23.77,0,0,0,3.17.22,23,23,0,0,0,16.83-7.35,3.47,3.47,0,1,0-5.09-4.72,16.13,16.13,0,0,1-14,5,3.47,3.47,0,1,0-.95,6.88Z"/><path class="cls-1" d="M188.25,86.66a3.45,3.45,0,0,0,4.32-2.33,22.82,22.82,0,0,0,.75-3.47,3.47,3.47,0,1,0-6.88-.93,16.7,16.7,0,0,1-.52,2.41A3.47,3.47,0,0,0,188.25,86.66Z"/><path class="cls-1" d="M138,140.22a3.47,3.47,0,1,0-6.89-.87c-1.69,13.28-2.65,32.44,2.32,48.27a3.47,3.47,0,0,0,6.63-2.08C135.46,170.91,136.4,152.82,138,140.22Z"/><path class="cls-1" d="M135.21,134.83a3.31,3.31,0,0,0,.62,0,3.47,3.47,0,0,0,3.41-2.86c.51-2.84.88-4.51.89-4.55a3.47,3.47,0,0,0-6.77-1.55s-.41,1.8-1,4.89A3.48,3.48,0,0,0,135.21,134.83Z"/><path class="cls-1" d="M119.45,172.33a3.47,3.47,0,0,0-4,2.82c-.24,1.35-.49,2.67-.78,4a3.47,3.47,0,0,0,2.64,4.15,3.82,3.82,0,0,0,.75.08,3.48,3.48,0,0,0,3.39-2.72c.31-1.4.59-2.82.84-4.27A3.47,3.47,0,0,0,119.45,172.33Z"/><path class="cls-1" d="M117.51,109.53a3.47,3.47,0,0,0-2.9,4c0,.27,4.11,27.05,2.11,51.26a3.48,3.48,0,0,0,3.18,3.74h.29a3.47,3.47,0,0,0,3.46-3.18c2.06-25-2-51.77-2.18-52.89A3.47,3.47,0,0,0,117.51,109.53Z"/><path class="cls-1" d="M71.16,172.44l.5,0a3.47,3.47,0,0,0,.49-6.91c-1.13-.16-2.31-.28-3.54-.35a3.48,3.48,0,0,0-.39,6.94C69.25,172.21,70.22,172.3,71.16,172.44Z"/><path class="cls-1" d="M76.45,169.83a3.47,3.47,0,0,0,1.94,4.51,24.68,24.68,0,0,1,8.88,5.73,3.47,3.47,0,0,0,5.28-4.51A31,31,0,0,0,81,167.88,3.48,3.48,0,0,0,76.45,169.83Z"/><path class="cls-1" d="M166.28,163.78a15.07,15.07,0,0,1,1.82-1.35,3.48,3.48,0,0,0-3.76-5.85,24.54,24.54,0,0,0-2.59,1.93,3.47,3.47,0,1,0,4.53,5.27Z"/><path class="cls-1" d="M156.39,165.06a31.54,31.54,0,0,0-3.92,12.54,3.47,3.47,0,0,0,3.24,3.67h.23A3.48,3.48,0,0,0,159.4,178a24.77,24.77,0,0,1,3-9.52,3.47,3.47,0,0,0-6-3.45Z"/><path class="cls-1" d="M194,232.33h-9.15a3.47,3.47,0,1,0,0,6.94H194a3.47,3.47,0,0,0,0-6.94Z"/><path class="cls-1" d="M95.08,167.44a3.48,3.48,0,0,0,2.7-5.66L95.5,159a3.47,3.47,0,1,0-5.4,4.37l2.28,2.82A3.47,3.47,0,0,0,95.08,167.44Z"/><path class="cls-1" d="M168.69,179.22a3.43,3.43,0,0,0,2.27-.85,42.7,42.7,0,0,1,3.69-2.94,3.47,3.47,0,0,0-3-6.27,33.88,33.88,0,0,0-5.25,4,3.47,3.47,0,0,0,2.28,6.09Z"/></svg>