<svg xmlns="http://www.w3.org/2000/svg" width="1440" height="360" viewBox="0 0 1440 360" fill="none">
  <path d="M0 238c70-34 122-86 188-88 64-2 99 44 160 42 75-3 108-78 188-80 82-2 121 84 198 80 71-4 110-83 184-82 82 2 130 96 214 96 74 0 111-58 178-56 50 2 91 37 130 66v144H0V238Z" fill="#142419"/>
  <path d="M0 274c61-26 110-56 174-54 78 2 118 51 192 48 84-4 116-66 196-65 76 1 118 67 195 68 87 1 128-83 216-79 83 4 119 81 205 83 84 2 126-63 198-59 25 1 46 8 64 18v126H0v-86Z" fill="#24472d"/>
  <g opacity=".88">
    <path d="M93 206l28-52 28 52h-19l26 50h-70l26-50H93Z" fill="#326d43"/>
    <path d="M211 208l22-44 22 44h-14l20 39h-56l20-39h-14Z" fill="#326d43"/>
    <path d="M361 200l31-61 31 61h-20l28 55h-78l28-55h-20Z" fill="#326d43"/>
    <path d="M510 213l23-48 23 48h-15l22 43h-60l22-43h-15Z" fill="#326d43"/>
    <path d="M806 206l29-57 29 57h-19l27 52h-74l27-52h-19Z" fill="#326d43"/>
    <path d="M1022 210l25-50 25 50h-16l23 46h-64l23-46h-16Z" fill="#326d43"/>
    <path d="M1204 204l34-66 34 66h-22l31 61h-86l31-61h-22Z" fill="#326d43"/>
    <path d="M1334 213l23-46 23 46h-15l21 42h-58l21-42h-15Z" fill="#326d43"/>
  </g>
  <path d="M0 314c176-20 307-6 457 11 191 22 355 33 595 1 165-22 268-21 388-2v36H0v-46Z" fill="#0f1a12" opacity=".72"/>
</svg>
