<!-- Adapted from Laravel 5.7's 503.svg illustration (https://github.com/laravel/laravel, MIT License). Recolored to the Stacks blue palette. -->
<svg xmlns="http://www.w3.org/2000/svg" xmlns:xlink="http://www.w3.org/1999/xlink" viewBox="0 0 1024 1024"><defs><linearGradient id="a" x1="50.31%" x2="50%" y1="74.74%" y2="0%"><stop offset="0%" stop-color="#BFDBFE"/><stop offset="50.28%" stop-color="#93C5FD"/><stop offset="100%" stop-color="#3B82F6"/></linearGradient><linearGradient id="b" x1="50%" x2="50%" y1="0%" y2="100%"><stop offset="0%" stop-color="#60A5FA"/><stop offset="100%" stop-color="#1D4ED8"/></linearGradient><linearGradient id="c" x1="50%" x2="50%" y1="0%" y2="100%"><stop offset="0%" stop-color="#EFF6FF"/><stop offset="100%" stop-color="#3B82F6"/></linearGradient><circle id="e" cx="622" cy="663" r="60"/><filter id="d" width="260%" height="260%" x="-80%" y="-80%" filterUnits="objectBoundingBox"><feOffset in="SourceAlpha" result="shadowOffsetOuter1"/><feGaussianBlur in="shadowOffsetOuter1" result="shadowBlurOuter1" stdDeviation="32"/><feColorMatrix in="shadowBlurOuter1" values="0 0 0 0 0.376 0 0 0 0 0.608 0 0 0 0 0.98 0 0 0 0.9 0"/></filter><linearGradient id="f" x1="49.87%" x2="49.87%" y1="3.62%" y2="77.75%"><stop offset="0%" stop-color="#DBEAFE"/><stop offset="100%" stop-color="#1E40AF"/></linearGradient><linearGradient id="g" x1="100%" x2="72.45%" y1="0%" y2="85.2%"><stop offset="0%" stop-color="#172554"/><stop offset="100%" stop-color="#2563EB"/></linearGradient><linearGradient id="h" x1="49.48%" x2="49.87%" y1="11.66%" y2="77.75%"><stop offset="0%" stop-color="#BFDBFE"/><stop offset="100%" stop-color="#1E3A8A"/></linearGradient><linearGradient id="i" x1="91.59%" x2="70.98%" y1="5.89%" y2="88%"><stop offset="0%" stop-color="#1E40AF"/><stop offset="100%" stop-color="#60A5FA"/></linearGradient><linearGradient id="j" x1="70.98%" x2="70.98%" y1="9.88%" y2="88%"><stop offset="0%" stop-color="#1E40AF"/><stop offset="100%" stop-color="#60A5FA"/></linearGradient></defs><g fill="none" fill-rule="evenodd"><rect width="1024" height="1024" fill="url(#a)"/><g transform="translate(211 420)"><path fill="#60A5FA" d="M65 0a2 2 0 0 1 2 2v23h-4V2c0-1.1.9-2 2-2z"/><path fill="#2563EB" d="M64 24h2a3 3 0 0 1 3 3v2h-8v-2a3 3 0 0 1 3-3z"/><path fill="url(#b)" d="M65 108h40V68a40 40 0 1 0-80 0v40h40z"/><polygon fill="#1D4ED8" points="0 118 30 112 30 218 0 218"/><polygon fill="#1E3A8A" points="60 118 30 112 30 218 60 218"/><path fill="url(#c)" d="M45 107V68a40.02 40.02 0 0 1 30.03-38.75C92.27 33.65 105 49.11 105 67.5V107H45z"/><polygon fill="#1D4ED8" points="15 78 65 68 67 70 67 178 15 178"/><polygon fill="#60A5FA" points="115 78 65 68 65 70 65 178 115 178"/><polygon fill="#1D4ED8" points="75 118 105 112 105 218 75 218"/><polygon fill="#60A5FA" points="135 118 105 112 105 218 135 218"/></g><use fill="black" filter="url(#d)" xlink:href="#e"/><use fill="#3B82F6" xlink:href="#e"/><g transform="translate(146 245)"><path fill="url(#f)" d="M169.12 450.57C192.22 464.04 143.85 532.52 24 656h649C328.94 514.3 160.98 445.83 169.12 450.57z"/><path fill="url(#g)" d="M178.5 538.5C137.83 567.17 199.67 606.33 364 656H0l178.5-117.5z"/></g><g transform="translate(0 255)"><path fill="url(#h)" d="M1024 685H0V400.08C77.3 366.4 155.26 330 297.4 330c250 0 250.76 125.25 500 125 84.03-.08 160.02-18.2 226.6-40.93V685z"/></g><path fill="#1E3A8A" d="M251 506a8 8 0 0 1 8 8v15l-16 1v-16a8 8 0 0 1 8-8z"/><path fill="#60A5FA" d="M253 506.25a8 8 0 0 0-6 7.75v15.75l-4 .25v-16a8 8 0 0 1 10-7.75z"/><path fill="#1E3A8A" d="M251 546a8 8 0 0 1 8 8v15l-16 1v-16a8 8 0 0 1 8-8z"/><path fill="#60A5FA" d="M253 546.25a8 8 0 0 0-6 7.75v15.75l-4 .25v-16a8 8 0 0 1 10-7.75z"/><path fill="#2563EB" d="M301 506a8 8 0 0 1 8 8v16l-16-1v-15a8 8 0 0 1 8-8z"/><path fill="#1D4ED8" d="M305 529.75V514a8 8 0 0 0-6-7.75 8.01 8.01 0 0 1 10 7.75v16l-4-.25z"/><g transform="translate(0 636)"><path fill="url(#h)" d="M1024 356H0V185.82c137.51-15.4 203.1-50.49 356.67-60.1C555.24 113.3 606.71.59 856.74.59 929.52.58 981.18 11.2 1024 26.26V356z"/><path fill="url(#i)" d="M1024 26.21V326H856.91c99.31-86.5 112.63-140.75 39.97-162.78C710.24 106.64 795.12.58 856.9.58c72.7 0 124.3 10.6 167.09 25.63z"/><path fill="url(#i)" d="M1024 199.32V326H857c99.31-86.6 112.63-140.94 39.97-163L1024 199.32z"/></g><circle cx="566" cy="599" r="110" fill="#FFFFFF" opacity=".1"/><circle cx="669" cy="539" r="60" fill="#FFFFFF" opacity=".1"/><g transform="translate(0 705)"><path fill="url(#h)" d="M0 319V68.93C67.12 35.69 129.55 0 263 0c250 0 331.46 162.6 530 175 107.42 6.71 163-26.77 231-58.92V319H0z"/><path fill="url(#i)" d="M353.02 319H0V68.93C67.12 35.69 129.55 0 263 0c71.14 0 151.5 12.76 151.5 70.5 0 54.5-45.5 79.72-112.5 109-82.26 35.95-54.57 111.68 51.02 139.5z"/><path fill="url(#j)" d="M353.02 319H0v-14.8l302-124.7c-82.26 35.95-54.57 111.68 51.02 139.5z"/></g><circle cx="414" cy="799" r="70" fill="#FFFFFF" opacity=".1"/><circle cx="479" cy="745" r="30" fill="#FFFFFF" opacity=".1"/><g fill="#FFFFFF" opacity=".15" transform="translate(49 214)"><path d="M554.67 131.48a9.46 9.46 0 0 1 13.33 0 9.46 9.46 0 0 0 13.33 0l13.33-13.24a28.39 28.39 0 0 1 40 0l10 9.93a14.2 14.2 0 0 0 20 0 14.2 14.2 0 0 1 20 0l.6.6a31.8 31.8 0 0 1 9.4 22.56H548v-3.84c0-6.01 2.4-11.78 6.67-16.01zM751 8.25c11.07-11 28.93-11 40 0l10 9.94a14.19 14.19 0 0 0 20 0 14.19 14.19 0 0 1 20 0 16.36 16.36 0 0 0 21.3 1.5l8.7-6.47a33.47 33.47 0 0 1 40 0l4.06 3.03A39.6 39.6 0 0 1 931 48H731c0-12.72 8.93-28.75 20-39.75zM14.1 75.14l.9-.9a21.29 21.29 0 0 1 30 0 21.29 21.29 0 0 0 30 0l10-9.93a35.48 35.48 0 0 1 50 0l15 14.9a14.2 14.2 0 0 0 20 0 14.2 14.2 0 0 1 20 0c6.4 6.35 10 15 10 24.02V109H0c0-12.71 5.07-24.9 14.1-33.86z"/></g></g></svg>