<svg id="Layer_1" data-name="Layer 1" xmlns="http://www.w3.org/2000/svg" viewBox="0 0 256 256"><defs><style>.cls-1{fill:#231f20;}</style></defs><title>minimal national park 9</title><path class="cls-1" d="M240,85.2C233.46,70.78,223.85,62,213.67,61A26.43,26.43,0,0,0,195.28,66c-21.4-36.18-73-16.92-73.58-16.71L44.06,79A31.21,31.21,0,0,0,33,86.13c-3.82,1.64-21.77,10.94-23.22,41.69a3.47,3.47,0,0,0,3.3,3.63h.17a3.48,3.48,0,0,0,3.47-3.31c.61-13.1,4.52-21.59,8.67-27A40.75,40.75,0,0,0,27,121.29a3.64,3.64,0,0,0,.3.63c7.66,12.66,4.58,28.32,4.15,30.26a30.13,30.13,0,0,0-.14,20.74v24.93c0,11.48,7.64,14,8,14.06a3.24,3.24,0,0,0,1,.16H55.58a3.47,3.47,0,0,0,3.47-3.47c0-4.63-2.06-13.38-9.51-16.52l-.66-14.62c1.06-.8,2.58-2,4.32-3.52.77,3.75,2,8.29,3.8,11.49,4.2,6.14,10.74,17.79,10.43,23a3.46,3.46,0,0,0,3.46,3.68h18A3.47,3.47,0,0,0,92.35,208c-.27-1.6-2.81-14.73-11.44-17L74.6,176.93a57.2,57.2,0,0,0,10.83-18.61A38.72,38.72,0,0,0,99,160.62c10.14-.22,19.8-4.7,28.84-13.23a43.21,43.21,0,0,0,7.93,24.19c-4.36,19.93,4.78,37.84,5.18,38.62a3.47,3.47,0,0,0,3.08,1.87h33.1a3.47,3.47,0,0,0,3.37-2.66,11.18,11.18,0,0,0-1.39-9.22,14.56,14.56,0,0,0-8.21-5.39,44.81,44.81,0,0,1-2-29.1c2.53-8.81,10-17.7,14.92-22.85,4.47,13.85,19.79,20.73,20.54,21.06a3.48,3.48,0,0,0,3.32-.29c7.86-5.24,8.9-16.65,8.87-22.59,13.6-1.26,24.27-11.41,24.75-11.88a4.45,4.45,0,0,0,.41-.47C249.38,118.13,246.19,98.75,240,85.2Zm-172,88.62a3.46,3.46,0,0,0-.71,3.87l8,17.86a3.51,3.51,0,0,0,3,2c2.71.09,4.8,4,6,7.52H74.08c-1.71-9.3-10.23-22-11.19-23.35-1.86-3.3-3.11-9.9-3.64-13.57,4.75-5,9.57-11.29,11.61-18A52.68,52.68,0,0,0,79,155.54C75.74,166,68.13,173.73,68.05,173.82Zm168.29-49.47c-1.63,1.48-11.83,10.32-23.21,9.85a3.24,3.24,0,0,0-2.67,1.1,3.46,3.46,0,0,0-.91,2.74c.41,3.79.34,13.8-4.18,18.56-4.46-2.44-15.38-9.59-15.73-20.93a1.86,1.86,0,0,0-.06-.34,1.21,1.21,0,0,0,0-.19,25.84,25.84,0,0,1,.71-11,3.47,3.47,0,0,0-6.62-2.11,34.09,34.09,0,0,0-1.18,12.42c-4.14,3.89-16.43,16.28-20.2,29.34-4.55,15.8.33,31,3.41,35.92a3.47,3.47,0,0,0,2.45,1.59c.78.11,4,.91,5.24,2.8a3.23,3.23,0,0,1,.47,1h-14.4c-2.31-6.23-8.38-25.57-2.55-43.84a3.47,3.47,0,0,0-6.62-2.11c-5.89,18.45-1.13,37.29,1.79,46H146.3c-2.1-5-7.08-19-3.36-33.5a3.55,3.55,0,0,0-.8-3.21c-.71-.78-17.22-19.6,1.27-47.89a3.48,3.48,0,0,0-5.82-3.8A60.24,60.24,0,0,0,129.08,136c-9.5,11.48-19.64,17.45-30.13,17.7-16.12.37-27.85-12.68-28-12.81a3.47,3.47,0,0,0-6.06,2.42c.36,11.59-15.46,25.32-21.59,29.64a3.47,3.47,0,0,0-1.47,3l.86,18.9a3.47,3.47,0,0,0,2.77,3.24c3.88.8,5.49,4.31,6.15,7.06H41.09c-.83-.53-2.82-2.31-2.82-7.27V172.26a3.55,3.55,0,0,0-.29-1.4,23.28,23.28,0,0,1,0-16.36,4,4,0,0,0,.15-.45c.2-.8,4.69-19.5-4.71-35.4-1-3-7.5-25.1,13.11-33.19l77.62-29.74a89.12,89.12,0,0,1,27.63-5c18.62,0,31.59,7.06,38.8,21.26l-.36,1.6a3.32,3.32,0,0,0-3.93,2.7c-.16.79-3.84,19.46,8.78,27.67a3.47,3.47,0,0,0,3.79-5.82c-3.69-2.4-5.29-6.46-5.9-10.33a25.67,25.67,0,0,0,10.43,6.08,3.47,3.47,0,0,0,1.71-6.73,19.52,19.52,0,0,1-9.33-6.63l1.67-7.39A19.18,19.18,0,0,1,213,67.94c7.52.7,15.25,8.23,20.68,20.14C240,101.85,241.08,117.33,236.34,124.35Z"/><path class="cls-1" d="M216.66,101.08a3.66,3.66,0,1,0,3.66,3.66A3.66,3.66,0,0,0,216.66,101.08Z"/></svg>