<svg id="Layer_1" data-name="Layer 1" xmlns="http://www.w3.org/2000/svg" viewBox="0 0 256 256"><defs><style>.cls-1{fill:#231f20;}</style></defs><title>minimal national park 12</title><path class="cls-1" d="M236.5,126.38a3.46,3.46,0,0,0-4.36-2.26L224,126.7a3.43,3.43,0,0,0-1.74,1.25l-6.78,9.19-18.26,6.07a3.18,3.18,0,0,0-1,.54l-17.81,13.62a3.51,3.51,0,0,0-.74.85H173l9.7-51.82.6,0h.3a3.46,3.46,0,0,0,.38-6.9l4.32-23.06a3.47,3.47,0,1,0-6.83-1.27L177,99l-15.76-1.32L140.13,80.74l2.66-10.54c.21,0,.4.06.61.06a17.33,17.33,0,1,0-7.35-1.72L132.87,81.1v0L107.19,182.74a2.41,2.41,0,0,0-.38,0l-19.67,2.89c-3.86-.36-10-1-11.09-1.15-1.75-.29-12-1.75-12-1.75a3.44,3.44,0,0,0-1.06.06V150H77.89a3.49,3.49,0,0,0,2.58-1.15l7.43-8.25a3.47,3.47,0,0,0,0-4.65l-7.43-8.24a3.45,3.45,0,0,0-2.58-1.15H22.81a3.47,3.47,0,0,0-2.58,5.79l5.34,5.93-5.34,5.92a3.48,3.48,0,0,0,2.58,5.8h21.7v50.33l-.22.29-6.59,9.27-11.21-2a3.47,3.47,0,0,0-1.22,6.84L54.79,220a4.07,4.07,0,0,0,.61.05,3.64,3.64,0,0,0,1.08-.17l16-5.28a3.47,3.47,0,0,0,1.26-.73l6.84-6.24,13,.23a3.4,3.4,0,0,0,3.53-3.41,3.47,3.47,0,0,0-3.41-3.54l-14.34-.25a3.46,3.46,0,0,0-2.4.91l-7.31,6.67L55.15,213l-9.89-1.76,4.58-6.45,8-10.06,6.7-4.9c2.83.41,9.07,1.3,10.39,1.52,1.81.31,11,1.15,12,1.25a3.22,3.22,0,0,0,.82,0l19.05-2.8,15,7-4.75,13.34a3.47,3.47,0,0,0,2.11,4.43,3.37,3.37,0,0,0,1.16.2,3.48,3.48,0,0,0,3.28-2.31l8.78-24.69,2.5,3.42a3.46,3.46,0,0,0,1.91,1.31L168,200.76a3.34,3.34,0,0,0,.89.11,3.47,3.47,0,0,0,1-.13l23.08-7a3.61,3.61,0,0,0,1.19-.64l14.92-12.22c.11-.08.16-.21.26-.31a3.31,3.31,0,0,0,.47-.58,3.07,3.07,0,0,0,.29-.64,2.83,2.83,0,0,0,.17-.4c0-.06,0-.13,0-.2a3.47,3.47,0,0,0,0-.72,3.28,3.28,0,0,0-.06-.63,3.59,3.59,0,0,0-.23-.59,3.78,3.78,0,0,0-.33-.63c0-.06-.06-.13-.1-.18a3,3,0,0,0-.34-.28,3.25,3.25,0,0,0-.54-.44,3.11,3.11,0,0,0-.67-.3,2.59,2.59,0,0,0-.38-.17c-.19,0-4.78-1.07-6.59-1.3-1.23-.46-6-4-9.74-7l-5.61-6L200,149.62l18.75-6.24a3.56,3.56,0,0,0,1.7-1.23l6.77-9.17,7.05-2.24A3.47,3.47,0,0,0,236.5,126.38ZM30.61,143l2.21-2.45a3.47,3.47,0,0,0,0-4.65l-2.21-2.45H76.34l4.3,4.78L76.34,143Zm22.07,47-1.22,1.53V150h4.63v37.39l-2.75,2A3.39,3.39,0,0,0,52.68,190ZM133.2,53.12a10.2,10.2,0,1,1,10.2,10.2A10.2,10.2,0,0,1,133.2,53.12Zm5.06,35,19.46,15.57a3.45,3.45,0,0,0,1.88.75l16.12,1.35-9.81,52.41h-4.49a3.53,3.53,0,0,0-1.53.35l-3,1.46.59-26.52a3.48,3.48,0,0,0-2.35-3.37l-25.33-8.66Zm-8.87,89.36,0,.05-.06,0c-.07,0-.1.12-.16.17a3.37,3.37,0,0,0-.65.71,3.72,3.72,0,0,0-.21.39,3.47,3.47,0,0,0-.21.37l-3.9,11-10.45-4.88,14.42-57.08,22.39,7.65-.62,27.89Zm57-6a3.4,3.4,0,0,0,.34.32c8.05,6.54,11,8,12.27,8.39l-8.74,7.16-16.48,5-4.91,1.41-29.08-7.72-3.52-4.82,17.18-11.5,4.69,2.76a3.43,3.43,0,0,0,1.76.48,3.47,3.47,0,0,0,1.76-6.47l-1-.59,1.59-.78h18.23Z"/><path class="cls-1" d="M100.22,122.93l14.33,3.49a3.42,3.42,0,0,0,.83.1,3.48,3.48,0,0,0,3.37-2.66l8.91-36.61a3.4,3.4,0,0,0-.16-2A12.53,12.53,0,1,0,107.08,72.9a12.4,12.4,0,0,0,.54,7.55,3.35,3.35,0,0,0-1,1.67l-8.92,36.61a3.51,3.51,0,0,0,.41,2.63A3.47,3.47,0,0,0,100.22,122.93Zm13.61-48.39a5.6,5.6,0,0,1,5.44-4.28,5.42,5.42,0,0,1,1.32.16A5.6,5.6,0,0,1,118,81.31h0a5.58,5.58,0,0,1-4.1-6.76Zm-1.32,12.59,3.77.92h0l3.79.92-7.28,29.87L105.23,117Z"/></svg>