<svg xmlns="http://www.w3.org/2000/svg" viewBox="0 0 1200 200" preserveAspectRatio="none" fill="#000">
  <!-- Layered mountain skyline used as a CSS mask (single-colour silhouette).
       Back range is lower, front range taller, with a few pine trees on the
       crest for that national-park trail feel. -->
  <path d="M0 200 V120 L70 96 L150 116 L235 70 L320 104 L420 58 L520 100 L620 66 L720 104 L820 72 L930 110 L1030 80 L1130 112 L1200 92 V200 Z" opacity="0.55"/>
  <path d="M0 200 V150 L90 126 L180 150 L280 104 L360 138 L470 92 L560 132 L660 96 L770 138 L880 108 L990 146 L1090 116 L1200 150 V200 Z"/>
  <!-- pine trees standing on the front ridge -->
  <g>
    <path d="M150 150 l11 22 h-6 l9 18 h-8 l9 17 h-30 l9-17 h-8 l9-18 h-6 z"/>
    <path d="M470 130 l13 26 h-7 l11 21 h-9 l11 20 h-36 l11-20 h-9 l11-21 h-7 z"/>
    <path d="M660 134 l10 20 h-5 l8 16 h-7 l8 15 h-26 l8-15 h-7 l8-16 h-5 z"/>
    <path d="M990 148 l12 24 h-6 l10 19 h-8 l10 19 h-34 l10-19 h-8 l10-19 h-6 z"/>
  </g>
</svg>
