<svg id="Layer_1" data-name="Layer 1" xmlns="http://www.w3.org/2000/svg" viewBox="0 0 256 256"><defs><style>.cls-1{fill:#231f20;}</style></defs><title>minimal national park 8</title><path class="cls-1" d="M115.8,172.28a3.47,3.47,0,1,0-4-5.66c-31.68,22.49-49.66,5-50.47,4.15a3.47,3.47,0,0,0-5,4.83c.14.15,9.23,9.27,25.24,9.27C90.8,184.87,102.34,181.84,115.8,172.28Z"/><path class="cls-1" d="M234.42,116.29c-1.1-1.69-3.12-3.4-8-4.25a3.51,3.51,0,0,0,0-1c-1.86-7.94-6.13-13.42-12.7-16.3-19.39-8.48-52.29,10-53.68,10.78a3.47,3.47,0,0,0,3.43,6c1-.56,2.2-1.2,3.56-1.89-2,11.53-6.91,19-14.49,30.42l-2.25,3.39c-4.51,6.84-6.48,15.89-7.31,23.46-7.25-18.28-16.18-53.41,3.74-86.22a3.47,3.47,0,0,0-1.33-4.86L32,14.93a3.5,3.5,0,0,0-3.47.11,3.46,3.46,0,0,0-1.64,3.07c0,.6.61,14.81,11.49,31.38a80,80,0,0,0,6.79,8.91L25,52.79A3.48,3.48,0,0,0,20.57,56c0,1.05-.19,15.56,16.39,29.29L26,84.53a3.5,3.5,0,0,0-3.69,3.1c0,.33-.78,8.29,6.84,16.76A43.16,43.16,0,0,0,40.44,113l-8.79.6a3.47,3.47,0,0,0-3,4.76c.34.83,5.1,11.89,20,19.33l-9.53,1.76a3.49,3.49,0,0,0-2.23,5.39c.2.29,15.32,21.68,42.7,21.68,9.62,0,20.77-2.65,33.31-9.79a3.47,3.47,0,1,0-3.43-6c-33.51,19.07-55.07,2.92-63.22-5.5l15.43-2.86a81.6,81.6,0,0,0,18.84,2.08,131.31,131.31,0,0,0,28.42-3.4,3.47,3.47,0,1,0-1.5-6.78C88,138.58,73.59,138.11,63,135.54a3.58,3.58,0,0,0-.65-.14c-13.84-3.5-21.12-10.59-24.56-15.23L54.92,119c12.36,3.79,29.46,6.43,53.26,6.43a3.48,3.48,0,0,0,0-7c-23.67,0-40.23-2.58-51.84-6.22l-.13,0c-11.21-3.53-17.79-8-21.62-12.19a20.37,20.37,0,0,1-4.89-8.28l18.91,1.32C62,100.35,81.71,106.5,110.88,109h.3a3.47,3.47,0,0,0,.29-6.93c-66-5.57-80.14-30.6-83.15-41.11l27.34,7.58c12.2,10.12,30,19.87,55.86,25.79a3.47,3.47,0,1,0,1.55-6.77C88.41,81.89,71.43,72.84,59.73,63.1a3,3,0,0,0-.81-.7c-16.57-14.14-22.2-29.59-24.1-38.08l104.09,56c-27.48,49.6,3.75,102.43,4.07,103a3.49,3.49,0,0,0,3,1.68,3.81,3.81,0,0,0,1-.16,3.48,3.48,0,0,0,2.42-3.54c0-.22-1.33-21.86,6.63-33.93l2.23-3.37c8.74-13.16,14.54-22,16.15-37.68,11.32-4.76,26.89-9.33,36.46-5.15,4.2,1.84,6.9,5.29,8.35,10.39a117.69,117.69,0,0,0-15.44,1.13,3.49,3.49,0,0,0-3,3.89,3.45,3.45,0,0,0,3.89,3c2.59-.33,4.86-.57,6.93-.74A93.21,93.21,0,0,1,202.09,186c11.72-35.76-9.07-54.71-9.34-54.95a3.48,3.48,0,0,0-4.6,5.21c1.2,1.07,28.85,26.85-9.38,78.33q-17.09-2.2-44.55,1.89a3.47,3.47,0,0,0,1,6.87c2.11-.32,4.09-.57,6.06-.83,35.82,1.36,44.66,8.39,46.8,11.36a3.57,3.57,0,0,1,.87,2.88,3.46,3.46,0,0,0,1.92,4.41,3.52,3.52,0,0,0,1.34.27,3.47,3.47,0,0,0,3.2-2.14,9.83,9.83,0,0,0-1.29-8.88c-2-3.16-5.64-5.81-10.78-8,7.29,1.65,11,4.22,12.9,6.35a9.1,9.1,0,0,1,2.3,8.06,3.47,3.47,0,0,0,2.31,4.3,3.29,3.29,0,0,0,1,.16,3.48,3.48,0,0,0,3.32-2.46,16,16,0,0,0-3.58-14.47c-3.13-3.64-7.9-6.32-14.22-8.08,11.57-11,42.4-46.14,31.24-97.87,6.6,0,9,1,9.68,1.42a3.47,3.47,0,0,0,6.22,3A6.24,6.24,0,0,0,234.42,116.29Z"/><path class="cls-1" d="M125.55,182.92a3.47,3.47,0,1,0-6.32-2.88c-.1.22-10.42,21.89-42.92,13.72a3.47,3.47,0,1,0-1.7,6.73,63.71,63.71,0,0,0,15.57,2.06C116.25,202.55,125.45,183.15,125.55,182.92Z"/><path class="cls-1" d="M136.16,192.57a3.48,3.48,0,0,0-4.59,1.75c-.37.83-9.42,20.35-30,15.15a3.47,3.47,0,1,0-1.71,6.73,33.86,33.86,0,0,0,8.37,1.08c16,0,26.2-12.47,29.64-20.12A3.47,3.47,0,0,0,136.16,192.57Z"/></svg>