<svg xmlns="http://www.w3.org/2000/svg" viewBox="0 0 620 620" fill="none" stroke="#000" stroke-width="2.4" stroke-linejoin="round">
  <path d="M187.1 180.0 L190.2 184.6 L189.2 189.0 L184.2 192.2 L177.0 193.4 L169.5 192.8 L163.4 191.5 L159.6 190.8 L157.6 191.4 L156.5 193.5 L155.2 196.6 L153.0 199.4 L150.0 201.3 L146.6 202.1 L143.1 202.1 L139.4 201.9 L135.3 201.9 L130.5 201.8 L125.5 201.1 L121.2 199.0 L119.0 195.4 L119.8 190.8 L123.7 186.1 L129.5 182.3 L135.1 180.0 L138.6 178.7 L138.9 177.4 L136.2 175.1 L132.0 171.0 L128.2 165.6 L126.7 159.9 L127.9 155.3 L131.6 152.7 L136.6 152.2 L141.7 153.4 L146.2 155.1 L150.0 156.6 L153.4 157.8 L156.6 158.9 L159.3 160.6 L161.3 163.2 L162.2 166.4 L162.2 169.5 L162.4 171.8 L164.0 173.1 L167.8 173.6 L173.9 174.5 L181.0 176.5 L187.1 180.0 Z"/>
  <path d="M206.2 180.0 L206.6 186.4 L204.6 192.6 L200.0 197.8 L193.2 201.5 L185.5 203.5 L178.4 204.4 L172.7 205.5 L168.7 207.9 L165.6 212.3 L161.9 218.3 L156.8 224.7 L150.0 229.7 L142.1 231.9 L134.2 230.8 L127.4 226.9 L122.2 221.3 L118.5 215.3 L115.4 209.8 L112.5 204.8 L109.5 200.1 L107.0 195.3 L105.5 190.3 L105.3 185.1 L106.2 180.0 L107.4 175.2 L108.0 170.3 L107.6 164.9 L106.6 158.5 L106.2 151.1 L107.7 143.6 L111.9 137.3 L118.7 133.4 L127.3 132.9 L136.1 135.3 L143.8 139.4 L150.0 143.7 L155.1 146.6 L160.1 147.7 L165.7 147.5 L172.2 146.9 L179.3 147.1 L186.1 148.9 L191.8 152.4 L196.1 157.1 L199.4 162.4 L202.1 168.0 L204.5 173.8 L206.2 180.0 Z"/>
  <path d="M221.2 180.0 L218.8 187.8 L216.5 195.3 L214.0 202.8 L210.5 210.1 L205.7 216.8 L199.6 222.6 L192.6 227.8 L185.3 232.5 L177.6 237.3 L169.4 242.4 L160.3 247.2 L150.0 250.7 L139.0 251.9 L128.2 249.8 L118.9 244.6 L111.7 237.0 L106.8 228.5 L103.2 220.3 L99.7 213.2 L95.2 207.2 L89.5 201.6 L83.1 195.4 L77.2 188.2 L73.2 180.0 L72.0 171.2 L73.6 162.4 L77.3 154.1 L82.4 146.4 L88.3 139.3 L94.9 132.6 L102.5 126.8 L111.3 122.3 L121.0 119.7 L131.1 119.4 L141.0 121.0 L150.0 123.5 L158.3 125.7 L166.5 126.9 L175.5 127.0 L185.7 126.8 L196.9 127.5 L207.8 130.3 L217.1 135.7 L223.4 143.6 L226.2 152.8 L226.0 162.5 L223.9 171.6 L221.2 180.0 Z"/>
  <path d="M240.8 180.0 L237.7 189.9 L235.3 199.7 L233.7 209.8 L231.6 220.5 L228.1 231.5 L222.0 241.9 L213.2 250.8 L202.1 257.6 L189.5 262.1 L176.4 264.6 L163.1 265.8 L150.0 265.9 L137.0 264.8 L124.4 262.2 L112.5 257.9 L101.9 251.7 L92.8 244.1 L85.2 235.7 L78.4 227.2 L71.6 218.9 L64.3 210.5 L56.7 201.5 L49.7 191.4 L44.8 180.0 L43.3 167.9 L46.0 156.0 L52.6 145.3 L61.9 136.3 L72.6 128.9 L83.4 122.7 L93.9 117.1 L104.1 111.6 L114.5 106.3 L125.6 101.8 L137.6 98.7 L150.0 97.3 L162.6 97.7 L175.1 99.4 L187.5 102.1 L199.9 105.7 L212.2 110.3 L223.8 116.5 L233.9 124.6 L241.4 134.6 L245.4 146.0 L246.0 157.9 L244.0 169.4 L240.8 180.0 Z"/>
  <path d="M267.5 180.0 L265.7 193.1 L263.0 206.0 L259.6 219.1 L255.3 232.3 L249.2 245.5 L240.7 258.0 L229.2 268.7 L215.0 276.8 L199.0 281.8 L182.3 283.6 L165.8 283.1 L150.0 281.3 L134.9 278.8 L120.1 276.1 L105.3 272.8 L90.7 268.3 L76.7 262.2 L63.9 254.1 L52.8 244.2 L43.5 232.9 L36.1 220.6 L30.1 207.6 L25.8 194.1 L23.5 180.0 L23.8 165.7 L27.3 151.7 L34.2 138.7 L44.0 127.4 L55.6 117.7 L68.1 109.6 L80.6 102.3 L93.0 95.1 L105.6 87.9 L119.1 80.9 L133.9 75.1 L150.0 71.4 L166.7 70.8 L183.2 73.4 L198.7 78.9 L212.7 86.6 L225.2 95.7 L236.4 105.7 L246.4 116.4 L254.9 127.9 L261.5 140.3 L265.8 153.3 L267.7 166.7 L267.5 180.0 Z"/>
  <path d="M296.9 180.0 L296.5 196.6 L293.0 213.0 L286.8 228.7 L278.3 243.7 L267.7 257.7 L255.2 270.5 L240.8 281.7 L224.4 290.9 L206.5 297.4 L187.7 301.1 L168.7 302.2 L150.0 301.4 L131.8 299.2 L113.8 296.2 L95.9 292.4 L77.9 287.4 L60.3 280.6 L43.9 271.3 L29.7 259.4 L18.5 245.3 L10.8 229.6 L6.3 213.1 L4.5 196.5 L4.9 180.0 L7.0 163.8 L11.0 148.0 L17.0 132.6 L25.4 118.1 L36.1 104.8 L48.8 92.9 L63.0 82.5 L78.4 73.4 L94.8 65.4 L112.2 58.5 L130.6 53.2 L150.0 50.2 L169.9 50.2 L189.4 53.6 L207.6 60.4 L223.9 69.9 L238.0 81.3 L250.3 93.7 L261.3 106.5 L271.4 119.7 L280.6 133.5 L288.4 148.1 L294.0 163.7 L296.9 180.0 Z"/>
  <path d="M323.4 180.0 L323.2 199.6 L318.8 218.9 L310.5 237.2 L298.9 253.9 L284.9 269.1 L269.2 282.5 L252.1 294.4 L233.7 304.7 L214.2 313.3 L193.5 319.7 L172.0 323.6 L150.0 325.0 L128.0 323.8 L106.3 320.3 L85.1 314.7 L64.7 307.1 L45.3 297.4 L27.4 285.5 L11.7 271.2 L-0.8 254.9 L-9.8 236.9 L-15.1 218.1 L-17.2 198.9 L-16.6 180.0 L-13.9 161.4 L-9.7 143.2 L-3.6 125.3 L4.5 107.7 L15.2 91.0 L28.8 75.7 L45.1 62.4 L63.7 51.5 L84.1 43.1 L105.5 37.3 L127.6 33.7 L150.0 32.6 L172.4 33.9 L194.3 37.8 L215.3 44.5 L234.7 53.8 L252.2 65.4 L267.8 78.7 L281.5 93.2 L293.6 108.7 L304.3 125.0 L313.3 142.4 L319.9 160.8 L323.4 180.0 Z"/>
  <path d="M501.1 120.0 L502.0 123.6 L500.5 127.0 L495.9 129.2 L489.0 129.4 L481.4 127.5 L475.3 124.6 L472.1 122.4 L471.9 122.8 L473.2 126.7 L474.2 133.6 L473.3 141.8 L470.0 148.7 L465.1 152.3 L460.1 151.8 L456.5 148.0 L455.0 142.4 L455.0 136.8 L455.5 132.4 L455.7 129.5 L455.1 127.4 L454.4 125.6 L454.3 123.6 L455.4 121.7 L457.1 120.0 L458.4 118.7 L458.0 117.2 L455.2 114.7 L450.9 110.5 L446.5 104.5 L444.2 97.8 L445.3 92.4 L449.9 90.0 L456.4 91.7 L462.9 97.1 L467.6 104.2 L470.0 110.8 L470.8 114.8 L471.5 115.3 L473.4 113.0 L477.0 109.6 L481.8 106.8 L486.7 105.7 L490.6 106.4 L493.2 108.5 L495.0 111.1 L496.8 113.8 L499.0 116.7 L501.1 120.0 Z"/>
  <path d="M514.0 120.0 L510.8 124.6 L509.1 129.0 L508.0 133.5 L506.4 138.1 L503.7 142.2 L499.9 145.7 L495.7 148.8 L491.4 151.9 L487.3 156.0 L482.8 161.2 L477.2 166.9 L470.0 171.7 L461.8 173.8 L453.8 172.1 L447.5 166.6 L444.1 158.5 L443.4 149.8 L444.1 142.3 L444.2 137.0 L442.1 133.9 L437.1 131.7 L430.3 129.2 L423.2 125.3 L418.0 120.0 L415.7 113.8 L416.4 107.6 L419.3 101.9 L423.2 96.8 L427.5 92.0 L432.0 87.4 L437.2 83.3 L443.4 80.4 L450.6 79.7 L458.0 81.5 L464.6 85.0 L470.0 89.1 L474.3 91.9 L478.6 92.4 L484.3 90.4 L492.1 87.0 L501.9 84.3 L512.0 83.9 L520.4 86.8 L525.2 92.6 L525.8 100.1 L523.0 107.8 L518.4 114.5 L514.0 120.0 Z"/>
  <path d="M533.4 120.0 L529.5 126.7 L527.8 133.3 L528.3 140.8 L529.4 149.5 L529.2 159.0 L526.3 168.4 L520.2 176.3 L511.5 181.8 L501.3 184.9 L490.6 186.2 L480.2 186.4 L470.0 185.9 L460.1 184.9 L450.5 182.6 L441.7 178.8 L434.3 173.2 L428.6 166.4 L424.3 159.3 L420.3 152.8 L415.4 147.1 L408.7 141.8 L400.5 136.0 L392.0 128.8 L385.4 120.0 L382.7 110.1 L384.9 100.4 L391.6 92.1 L401.2 85.8 L411.7 81.6 L421.6 78.4 L430.1 75.3 L437.5 71.6 L444.6 67.3 L452.3 63.3 L460.8 60.2 L470.0 58.7 L479.4 58.7 L488.8 59.7 L498.3 61.2 L508.3 63.0 L518.7 65.4 L529.0 69.3 L537.7 75.3 L543.6 83.5 L545.5 93.1 L543.4 103.1 L538.7 112.2 L533.4 120.0 Z"/>
  <path d="M563.4 120.0 L561.4 130.4 L559.5 140.6 L557.9 151.3 L556.0 162.7 L552.9 174.7 L547.1 186.3 L538.1 196.3 L525.9 203.2 L511.7 206.5 L496.9 206.4 L482.9 204.0 L470.0 200.7 L458.1 197.7 L446.5 195.4 L434.7 193.4 L422.5 190.8 L410.5 186.7 L399.5 180.6 L390.0 172.8 L382.2 163.6 L375.8 153.6 L370.4 142.9 L366.1 131.8 L363.4 120.0 L363.1 107.9 L366.3 96.1 L373.1 85.5 L382.8 76.7 L394.2 70.0 L405.7 64.7 L416.3 59.8 L425.9 54.3 L435.1 47.6 L445.1 40.2 L456.7 33.4 L470.0 28.7 L484.2 27.1 L498.3 29.2 L511.2 34.5 L522.5 41.8 L532.3 50.2 L540.9 59.0 L548.7 68.1 L555.4 77.6 L560.6 87.7 L563.6 98.4 L564.4 109.3 L563.4 120.0 Z"/>
  <path d="M597.3 120.0 L597.5 134.4 L594.7 148.7 L589.2 162.5 L581.8 175.5 L572.7 187.8 L562.0 199.1 L549.5 209.1 L535.1 216.9 L519.2 222.1 L502.5 224.4 L485.9 224.1 L470.0 222.2 L454.7 219.7 L439.7 217.2 L424.3 214.9 L408.3 211.9 L392.1 207.3 L376.7 200.3 L363.5 190.3 L353.5 177.8 L347.3 163.7 L344.4 148.9 L344.0 134.3 L345.3 120.0 L347.7 106.2 L351.2 92.6 L356.4 79.5 L363.6 67.1 L372.8 55.9 L383.8 45.9 L396.1 37.1 L409.1 29.3 L422.7 21.9 L437.3 15.0 L453.0 9.2 L470.0 5.5 L487.6 4.8 L504.9 7.9 L520.7 14.6 L534.3 24.2 L545.5 35.4 L554.9 47.0 L563.4 58.4 L571.8 69.5 L580.1 80.8 L587.8 92.8 L593.9 106.0 L597.3 120.0 Z"/>
  <path d="M627.0 120.0 L627.4 137.8 L623.5 155.4 L615.4 171.8 L604.1 186.6 L590.7 199.7 L576.0 211.2 L560.5 221.4 L544.2 230.5 L526.9 238.2 L508.6 244.0 L489.5 247.7 L470.0 248.9 L450.4 247.9 L431.1 244.9 L412.1 240.2 L393.6 233.9 L375.6 225.8 L359.0 215.5 L344.5 202.8 L333.1 188.0 L325.5 171.5 L321.8 154.1 L321.3 136.8 L323.0 120.0 L326.0 103.7 L329.8 87.7 L334.6 71.8 L340.9 55.9 L349.5 40.5 L361.0 26.3 L375.4 14.0 L392.2 4.1 L410.6 -3.4 L430.0 -8.5 L449.9 -11.5 L470.0 -12.5 L490.1 -11.3 L509.8 -7.7 L528.5 -1.4 L545.6 7.5 L560.7 18.4 L573.9 30.6 L585.6 43.7 L596.4 57.2 L606.4 71.4 L615.5 86.5 L622.7 102.7 L627.0 120.0 Z"/>
  <path d="M386.8 430.0 L384.4 432.8 L383.2 435.4 L382.7 438.1 L381.9 440.9 L380.3 443.4 L378.0 445.5 L375.4 447.3 L373.0 449.3 L370.7 452.1 L368.1 456.0 L364.6 460.3 L360.0 464.0 L354.5 465.8 L349.2 464.6 L345.3 460.6 L343.5 454.5 L343.8 448.1 L345.2 442.8 L345.9 439.3 L344.8 437.5 L341.4 436.6 L336.3 435.5 L330.9 433.3 L326.8 430.0 L324.9 426.0 L325.3 422.0 L327.2 418.3 L329.9 415.1 L332.7 412.0 L335.6 409.0 L338.9 406.4 L343.0 404.6 L347.7 404.5 L352.6 406.1 L356.8 409.1 L360.0 412.4 L362.4 414.6 L364.7 414.8 L368.2 412.9 L373.5 409.9 L380.4 407.2 L387.6 406.3 L393.5 407.9 L396.8 411.7 L396.8 416.9 L394.2 422.1 L390.4 426.6 L386.8 430.0 Z"/>
  <path d="M403.2 430.0 L400.0 434.5 L398.9 439.0 L399.7 444.1 L401.1 450.4 L401.6 457.5 L400.0 464.4 L395.9 470.3 L389.7 474.3 L382.4 476.4 L374.7 477.1 L367.2 477.1 L360.0 476.6 L353.0 475.8 L346.2 474.2 L340.1 471.3 L335.1 467.1 L331.4 462.1 L328.7 456.9 L326.3 452.3 L322.9 448.4 L317.9 445.0 L311.4 441.2 L304.6 436.3 L299.2 430.0 L296.9 422.9 L298.4 415.8 L303.6 409.9 L311.0 405.7 L319.1 403.0 L326.5 401.2 L332.6 399.3 L337.7 396.8 L342.6 393.8 L347.8 390.7 L353.6 388.4 L360.0 387.2 L366.6 387.1 L373.2 387.8 L379.9 388.7 L387.1 389.7 L394.7 391.1 L402.3 393.6 L408.8 397.8 L412.9 403.7 L413.9 410.8 L411.9 418.1 L407.7 424.6 L403.2 430.0 Z"/>
  <path d="M428.1 430.0 L426.5 437.5 L425.2 445.0 L424.4 452.9 L423.6 461.6 L421.9 470.8 L418.0 479.9 L411.4 487.6 L402.2 492.9 L391.3 495.0 L380.1 494.4 L369.5 491.9 L360.0 488.9 L351.4 486.4 L343.0 484.7 L334.3 483.4 L325.2 481.8 L316.2 479.1 L307.9 474.8 L300.7 469.1 L294.9 462.3 L290.0 454.9 L285.9 447.1 L282.4 438.8 L280.1 430.0 L279.8 420.9 L282.2 412.1 L287.6 404.2 L295.4 397.9 L304.4 393.3 L313.4 389.9 L321.3 386.6 L328.2 382.6 L334.7 377.5 L341.8 371.5 L350.2 365.7 L360.0 361.6 L370.7 360.2 L381.3 361.7 L390.9 365.8 L399.2 371.6 L406.3 378.1 L412.5 384.8 L418.1 391.6 L423.0 398.7 L426.8 406.2 L428.8 414.1 L429.2 422.2 L428.1 430.0 Z"/>
  <path d="M457.3 430.0 L457.7 441.1 L455.6 452.0 L451.4 462.6 L445.7 472.6 L438.8 482.0 L430.7 490.8 L421.1 498.5 L410.0 504.5 L397.7 508.2 L384.8 509.5 L372.0 508.6 L360.0 506.6 L348.6 504.3 L337.4 502.5 L325.7 501.2 L313.3 499.6 L300.4 496.8 L288.0 491.9 L277.5 484.5 L269.7 474.8 L265.2 463.8 L263.5 452.2 L263.8 440.9 L265.3 430.0 L267.4 419.5 L270.1 409.3 L274.0 399.4 L279.5 390.0 L286.5 381.5 L295.0 374.1 L304.2 367.5 L314.0 361.5 L324.2 355.7 L335.1 350.0 L347.0 344.9 L360.0 341.5 L373.7 340.6 L387.1 343.0 L399.2 348.6 L409.3 356.6 L417.3 365.8 L423.8 375.1 L429.8 383.9 L436.0 392.3 L442.6 400.6 L449.0 409.5 L454.2 419.3 L457.3 430.0 Z"/>
  <path d="M483.6 430.0 L484.5 444.1 L481.3 458.0 L474.5 470.8 L465.0 482.1 L453.7 491.9 L441.8 500.3 L429.6 508.0 L417.0 514.9 L403.8 520.9 L389.8 525.6 L375.1 528.5 L360.0 529.5 L344.9 528.7 L329.9 526.5 L315.2 523.1 L300.5 518.6 L286.1 512.8 L272.6 505.1 L260.9 495.4 L252.0 483.6 L246.5 470.4 L244.5 456.6 L245.2 443.0 L247.6 430.0 L250.5 417.6 L253.4 405.4 L256.5 393.1 L260.6 380.6 L266.5 368.3 L274.9 356.8 L285.9 346.9 L299.0 339.1 L313.5 333.4 L328.7 329.5 L344.3 327.3 L360.0 326.5 L375.7 327.5 L391.0 330.4 L405.5 335.6 L418.5 342.9 L429.8 351.8 L439.5 361.6 L448.1 371.8 L456.4 382.1 L464.6 392.8 L472.5 404.1 L479.2 416.5 L483.6 430.0 Z"/>
  <path d="M504.1 430.0 L503.7 446.3 L499.8 462.2 L492.4 477.2 L481.9 490.5 L469.3 502.1 L455.5 512.1 L441.3 521.1 L426.7 529.4 L411.7 537.2 L395.6 544.3 L378.3 549.8 L360.0 552.9 L341.2 553.0 L322.6 550.0 L305.0 544.3 L288.7 536.3 L273.8 526.6 L260.4 515.7 L248.5 503.5 L238.6 490.3 L231.0 476.0 L226.1 460.9 L223.9 445.4 L224.1 430.0 L226.1 414.8 L229.4 399.9 L233.7 385.0 L239.4 370.1 L247.1 355.5 L257.5 341.9 L270.8 330.0 L286.7 320.9 L304.5 314.8 L323.1 311.7 L341.8 311.0 L360.0 312.1 L377.7 314.3 L395.1 317.4 L412.1 321.8 L428.7 327.7 L444.2 335.6 L458.4 345.4 L470.7 357.0 L481.1 369.9 L489.7 383.8 L496.6 398.5 L501.5 414.0 L504.1 430.0 Z"/>
  <path d="M521.8 430.0 L519.9 448.1 L515.5 465.8 L508.6 482.9 L499.0 499.0 L486.9 513.7 L472.6 526.9 L456.7 538.4 L439.5 548.5 L421.3 557.2 L401.9 564.5 L381.4 569.9 L360.0 572.8 L338.2 572.5 L316.7 568.8 L296.5 561.8 L278.2 551.9 L261.9 540.0 L247.5 526.7 L234.8 512.6 L223.5 497.8 L213.6 482.2 L205.7 465.6 L200.3 448.1 L197.8 430.0 L198.7 411.7 L202.6 393.7 L209.3 376.3 L218.4 359.7 L229.8 344.1 L243.5 329.8 L259.5 317.3 L277.5 307.2 L297.3 299.8 L318.0 295.3 L339.1 293.6 L360.0 294.1 L380.5 296.3 L400.6 299.7 L420.5 304.3 L440.2 310.6 L459.1 318.9 L476.6 329.7 L491.8 343.0 L504.0 358.5 L512.9 375.5 L518.6 393.4 L521.5 411.7 L521.8 430.0 Z"/>
  <path d="M541.4 430.0 L538.9 450.3 L534.2 470.1 L527.3 489.6 L517.9 508.4 L505.7 526.2 L490.6 542.4 L472.8 556.5 L452.8 568.2 L431.0 577.4 L408.0 584.0 L384.2 588.1 L360.0 589.6 L335.8 588.3 L312.0 584.1 L289.3 576.9 L268.1 566.8 L249.0 554.4 L232.0 540.1 L216.9 524.4 L203.8 507.6 L192.4 489.7 L183.2 470.7 L176.6 450.8 L173.4 430.0 L174.0 408.9 L178.8 388.2 L187.3 368.5 L199.2 350.2 L213.8 333.5 L230.4 318.6 L248.8 305.4 L268.8 294.1 L290.1 285.0 L312.7 278.3 L336.2 274.3 L360.0 273.1 L383.8 274.5 L407.2 278.4 L430.1 284.5 L452.1 292.8 L473.0 303.3 L492.2 316.3 L508.9 331.7 L522.5 349.3 L532.4 368.6 L538.7 388.8 L541.5 409.5 L541.4 430.0 Z"/>
  <path d="M77.0 520.0 L72.7 520.3 L72.5 520.6 L76.1 522.2 L81.5 525.7 L86.4 530.8 L89.0 536.3 L88.5 540.7 L85.5 543.1 L81.3 543.4 L77.0 542.4 L73.2 541.1 L70.0 540.0 L67.1 539.2 L64.4 538.1 L62.4 535.9 L61.6 532.5 L62.3 528.6 L64.0 525.2 L65.3 523.1 L64.4 522.8 L60.3 523.5 L53.1 523.9 L44.5 522.9 L37.0 520.0 L33.1 515.8 L33.9 511.7 L39.1 509.0 L46.9 508.5 L54.7 509.9 L60.7 512.0 L64.2 513.5 L65.5 513.3 L66.0 511.7 L66.6 509.2 L68.0 507.0 L70.0 505.6 L72.3 505.1 L74.7 504.8 L77.7 504.1 L81.6 502.7 L86.7 501.3 L92.3 500.8 L97.0 502.2 L99.0 505.6 L97.2 510.3 L91.7 515.0 L84.1 518.4 L77.0 520.0 Z"/>
  <path d="M106.6 520.0 L104.9 523.9 L104.5 527.9 L105.9 532.8 L108.3 539.0 L110.2 546.5 L109.9 554.4 L106.5 560.9 L99.9 564.6 L91.5 564.7 L83.0 561.6 L75.6 556.7 L70.0 551.9 L65.6 548.8 L61.4 547.6 L56.5 548.1 L50.7 548.8 L44.4 548.7 L38.5 547.1 L33.5 544.1 L29.5 540.1 L26.1 535.6 L22.8 530.9 L19.4 525.7 L16.6 520.0 L15.6 513.8 L17.6 507.9 L22.7 503.2 L30.3 500.3 L38.8 499.4 L46.3 499.6 L51.7 499.5 L54.9 497.6 L57.1 493.2 L59.7 486.8 L63.9 480.0 L70.0 474.5 L77.3 472.0 L84.7 472.9 L90.9 476.5 L95.7 481.8 L99.2 487.3 L102.1 492.4 L104.9 497.0 L107.5 501.4 L109.3 506.0 L109.7 510.9 L108.6 515.6 L106.6 520.0 Z"/>
  <path d="M141.7 520.0 L142.8 528.2 L141.5 536.5 L138.4 544.4 L134.1 551.8 L129.2 559.1 L123.4 565.9 L116.3 571.9 L107.7 576.2 L98.1 578.3 L88.0 577.8 L78.5 575.3 L70.0 572.1 L62.4 569.5 L54.9 568.3 L46.5 568.7 L36.7 569.6 L25.8 569.6 L14.9 567.4 L5.8 562.4 L-0.3 554.9 L-3.0 546.0 L-2.7 536.8 L-0.8 528.0 L1.7 520.0 L4.0 512.5 L6.3 505.3 L9.0 498.3 L12.9 491.6 L18.1 485.8 L24.4 480.7 L31.0 476.3 L37.7 472.0 L44.5 467.0 L51.8 461.5 L60.2 455.9 L70.0 451.7 L80.7 450.1 L91.2 452.1 L100.1 457.5 L106.7 465.3 L111.0 474.1 L113.9 482.2 L116.9 489.1 L120.9 494.7 L126.4 499.9 L132.5 505.6 L138.0 512.3 L141.7 520.0 Z"/>
  <path d="M172.1 520.0 L173.7 531.7 L171.1 543.3 L164.8 553.8 L155.8 562.6 L145.5 569.8 L135.1 576.0 L124.9 581.6 L114.9 586.9 L104.6 591.8 L93.6 595.8 L82.0 598.3 L70.0 599.2 L58.0 598.6 L46.0 596.9 L34.1 594.6 L21.9 591.7 L9.6 587.7 L-2.2 582.1 L-12.3 574.3 L-19.7 564.5 L-23.4 553.3 L-23.7 541.6 L-21.3 530.3 L-17.9 520.0 L-14.7 510.4 L-12.4 501.0 L-10.8 491.2 L-8.8 480.9 L-5.2 470.4 L0.7 460.4 L9.3 451.9 L19.9 445.4 L31.9 440.9 L44.4 438.0 L57.2 436.3 L70.0 435.8 L82.8 436.6 L95.2 439.1 L106.8 443.7 L116.9 450.2 L125.2 458.1 L132.2 466.5 L138.4 474.9 L144.9 482.8 L152.1 490.7 L159.9 499.3 L167.0 509.0 L172.1 520.0 Z"/>
  <path d="M194.7 520.0 L194.6 534.1 L191.2 547.9 L184.3 560.7 L174.7 572.0 L163.1 581.5 L150.8 589.5 L138.5 596.8 L126.3 603.8 L113.7 610.8 L100.3 617.4 L85.7 622.8 L70.0 626.0 L53.7 626.5 L37.6 624.0 L22.4 618.8 L8.5 611.7 L-4.2 603.1 L-15.6 593.6 L-25.6 583.1 L-34.1 571.7 L-40.5 559.4 L-44.4 546.4 L-45.9 533.1 L-45.3 520.0 L-43.4 507.2 L-40.7 494.5 L-37.4 481.7 L-33.2 468.8 L-27.3 455.8 L-18.9 443.6 L-7.6 433.0 L6.3 425.1 L21.9 420.1 L38.2 418.0 L54.4 418.1 L70.0 419.6 L85.0 421.8 L99.7 424.6 L114.3 428.1 L128.5 432.9 L141.9 439.4 L154.1 447.6 L164.8 457.5 L173.8 468.5 L181.3 480.4 L187.4 492.9 L192.1 506.2 L194.7 520.0 Z"/>
  <path d="M575.0 540.0 L573.4 541.5 L573.6 543.1 L576.1 545.7 L580.0 549.9 L583.8 555.7 L585.7 562.1 L584.3 567.3 L579.9 569.7 L573.8 568.6 L567.6 564.4 L562.9 558.7 L560.0 553.4 L558.4 550.2 L557.0 549.5 L554.8 550.8 L551.4 552.8 L547.3 554.2 L543.3 554.3 L540.1 553.1 L537.6 551.1 L535.4 548.8 L532.8 546.3 L529.8 543.4 L527.0 540.0 L525.8 536.1 L527.2 532.4 L531.7 529.9 L538.5 529.3 L545.8 530.6 L551.7 532.9 L555.1 534.5 L555.9 534.0 L555.4 530.5 L555.2 524.5 L556.6 517.8 L560.0 512.1 L564.7 509.3 L569.5 509.6 L573.1 512.7 L575.4 517.1 L576.5 521.5 L577.3 525.2 L578.2 528.0 L579.2 530.5 L579.7 533.0 L579.2 535.6 L577.4 538.0 L575.0 540.0 Z"/>
  <path d="M609.9 540.0 L611.5 545.8 L610.7 551.7 L608.5 557.3 L605.5 562.6 L602.2 567.8 L598.3 572.9 L593.3 577.4 L587.1 580.3 L579.8 581.1 L572.3 579.4 L565.5 576.0 L560.0 572.2 L555.5 569.5 L551.0 568.9 L545.4 570.4 L537.9 572.9 L529.0 574.8 L519.8 574.6 L512.2 571.6 L507.5 566.0 L506.3 559.1 L507.9 552.0 L510.9 545.6 L513.9 540.0 L516.3 535.0 L518.0 530.3 L519.8 525.7 L522.4 521.3 L526.0 517.6 L530.4 514.5 L534.9 511.9 L539.1 508.8 L543.1 504.8 L547.4 499.7 L553.0 494.2 L560.0 489.6 L568.0 487.6 L575.9 489.1 L582.1 494.1 L585.9 501.4 L587.4 509.3 L587.7 516.2 L588.3 521.3 L590.7 524.8 L595.0 527.5 L600.6 530.6 L606.1 534.8 L609.9 540.0 Z"/>
  <path d="M640.5 540.0 L642.8 549.4 L640.8 558.6 L635.0 566.7 L626.6 573.1 L617.3 577.8 L608.4 581.6 L600.3 585.2 L592.9 589.0 L585.4 592.8 L577.5 596.1 L568.9 598.2 L560.0 598.9 L551.0 598.5 L542.1 597.4 L532.9 596.2 L523.2 594.8 L513.1 592.6 L503.1 589.0 L494.5 583.2 L488.8 575.4 L486.7 566.1 L488.2 556.6 L492.0 547.7 L496.5 540.0 L500.0 533.2 L501.7 526.6 L501.9 519.3 L501.9 511.1 L503.1 502.4 L506.6 494.1 L512.7 487.0 L520.9 481.7 L530.3 478.4 L540.2 476.4 L550.1 475.4 L560.0 475.1 L569.8 475.7 L579.4 477.8 L588.0 481.8 L595.2 487.5 L600.7 494.4 L604.9 501.4 L608.8 507.8 L613.5 513.5 L619.7 518.7 L627.2 524.5 L634.8 531.5 L640.5 540.0 Z"/>
  <path d="M662.3 540.0 L662.7 551.6 L659.7 563.0 L653.3 573.2 L644.1 581.8 L633.4 588.4 L622.5 593.8 L612.4 598.7 L603.0 604.1 L593.8 610.2 L583.9 616.7 L572.6 622.5 L560.0 626.3 L546.6 627.4 L533.4 625.5 L521.0 620.9 L509.9 614.6 L500.1 607.2 L491.2 599.2 L483.3 590.6 L476.6 581.4 L471.8 571.4 L469.3 560.9 L469.0 550.3 L470.3 540.0 L472.3 530.1 L474.3 520.2 L475.9 510.1 L477.8 499.2 L481.1 487.9 L486.8 477.0 L495.5 467.7 L507.0 461.1 L520.3 457.6 L534.2 457.2 L547.6 458.8 L560.0 461.2 L571.7 463.7 L583.1 466.0 L594.5 468.4 L605.9 471.6 L616.9 476.2 L626.9 482.4 L635.6 490.1 L642.9 498.8 L649.2 508.2 L654.8 518.2 L659.3 528.8 L662.3 540.0 Z"/>
  <path d="M679.8 540.0 L677.9 553.3 L674.5 566.4 L669.2 578.9 L662.0 590.6 L652.7 601.2 L641.9 610.4 L630.1 618.6 L617.7 626.0 L604.8 633.0 L591.0 639.5 L576.1 645.0 L560.0 648.5 L543.3 649.1 L526.9 646.2 L511.8 640.0 L498.7 631.3 L487.7 621.0 L478.3 610.2 L469.9 599.5 L461.8 588.8 L454.1 577.7 L447.4 566.0 L442.3 553.3 L439.8 540.0 L439.9 526.4 L442.6 513.0 L447.5 499.9 L454.1 487.4 L462.3 475.5 L472.2 464.5 L484.0 454.8 L497.7 447.3 L513.0 442.3 L528.9 440.2 L544.7 440.4 L560.0 442.1 L574.6 444.4 L589.0 446.8 L603.7 449.3 L618.7 452.5 L633.8 457.3 L648.0 464.3 L660.3 473.8 L669.7 485.6 L675.9 498.7 L679.2 512.5 L680.3 526.4 L679.8 540.0 Z"/>
  <path d="M700.0 540.0 L697.4 555.6 L693.7 570.8 L688.9 585.9 L682.5 600.8 L673.9 615.1 L662.6 628.3 L648.9 639.7 L633.2 649.0 L616.0 656.2 L597.8 661.3 L579.1 664.6 L560.0 665.9 L540.9 664.9 L522.1 661.5 L504.4 655.4 L488.2 646.9 L473.9 636.5 L461.3 624.9 L450.2 612.4 L440.1 599.5 L430.7 586.1 L422.4 571.7 L415.8 556.3 L412.0 540.0 L411.8 523.2 L415.5 506.7 L422.9 491.2 L433.1 477.0 L445.4 464.4 L459.0 453.1 L473.6 443.2 L489.2 434.5 L505.7 427.4 L523.3 422.1 L541.5 419.0 L560.0 418.2 L578.5 419.4 L596.7 422.2 L614.6 426.6 L632.2 432.4 L649.2 440.0 L665.0 449.7 L678.7 461.7 L689.5 475.7 L696.8 491.3 L700.5 507.6 L701.3 524.0 L700.0 540.0 Z"/>
</svg>
