<svg xmlns="http://www.w3.org/2000/svg" viewBox="0 0 177.26 338.26"><defs><style>.cls-1{fill:#545022;}</style></defs><title>Asset 11</title><g id="Layer_2" data-name="Layer 2"><g id="Layer_1-2" data-name="Layer 1"><path class="cls-1" d="M12.14,268.76A56.93,56.93,0,0,0,25,274.08a71.08,71.08,0,0,0,13.59,2.48,66.16,66.16,0,0,1-8.11,6.12l-1,.63,1.15.28c5.81,1.41,16.26-3.36,19.76-5.09l-2.68,7L49,284.7a41.46,41.46,0,0,1,16-5.73c-4.14,3.34-18.46,10.34-26.14,13.87l-1.49.69,1.62.26a48.3,48.3,0,0,0,7.68.6c13.09,0,24.19-5.11,29.89-8.34a78.81,78.81,0,0,0-7,10.6l-1.65,3,2.44-2.44c2-2,8.93-4.59,14-6.28v18.83a15.51,15.51,0,0,0-8.72,7.07L69,328.2a6.71,6.71,0,0,0,5.82,10.06h28.52a6.71,6.71,0,0,0,5.81-10.06l-6.54-11.34A15.49,15.49,0,0,0,93,309.54V291c5,1.69,12,4.28,14,6.28l2.44,2.44-1.65-3a78.81,78.81,0,0,0-7-10.6c5.7,3.23,16.79,8.35,29.89,8.34a48.39,48.39,0,0,0,7.68-.6l1.62-.26-1.49-.69c-7.69-3.54-22-10.53-26.14-13.87a41.34,41.34,0,0,1,16,5.73l1.26.76-2.69-7c3.07,1.51,11.44,5.35,17.38,5.35a10.06,10.06,0,0,0,2.39-.26l1.14-.28-1-.63a66.16,66.16,0,0,1-8.11-6.12,71.08,71.08,0,0,0,13.59-2.48,56.65,56.65,0,0,0,12.83-5.32,38.35,38.35,0,0,0,11.55-9.95l.6-.8h-1c-.34,0-32.42-.29-45.4-5.59,3.27,0,9.63-.78,20.25-4.87l1.62-.63-1.7-.33c-.22,0-20.25-4-26.53-10.25a229.63,229.63,0,0,0,25.55,2.06l2.21,0-2-1c-3.11-1.54-10.74-5.78-13.29-9a67,67,0,0,0,6.8,2.68c6.32,2.09,11.6,2.72,15.68,1.9l1.24-.25-1.07-.67c-.08,0-7.32-4.56-9.44-7.55a20.64,20.64,0,0,0,4.83-.86c3.29-.95,8.55-3.16,15-8.28l1.13-.9h-1.45c-.19,0-18.5.09-27.39-1.35a31.26,31.26,0,0,0,11.12-7.48l.86-.88-1.23,0c-.18,0-17.35.32-24.64-2.79a46.39,46.39,0,0,0,6.69-2.36c4.08-1.78,9.69-5,13.28-10.08l.61-.86-1.06.07c-.17,0-16.64,1.16-24.4-2.42,2.76-.16,8.43-.58,14.83-1.57,12.07-1.88,20.84-4.79,26.06-8.65l1.1-.82-1.37-.08c-5.92-.34-20.91-1.68-25.74-4.06a43.84,43.84,0,0,0,6.08-1c3.91-.95,9.45-2.9,13.63-6.82l.84-.79-1.15-.08a116.17,116.17,0,0,1-17.24-2.7c-8.25-1.94-19.25-5.61-25.55-12.17a94.38,94.38,0,0,0,12.15-3.1c9.21-3.07,15.11-6.91,17.54-11.4l.33-.61-.68-.12c-.31-.05-29.88-5.33-37.21-13.52,3.8-.45,18.11-2.45,23.2-7.16l.62-.57-.81-.27c-.21-.07-20.76-6.86-27.24-14.83H103A51.78,51.78,0,0,0,122.77,92l1-.43-1-.47c-.16-.08-15.44-7.75-19.83-12.21a61.16,61.16,0,0,0,17.65-3.56l1.23-.46-1.23-.48c-.17-.06-16.34-6.34-21.69-11.57,2.17.16,6.46,0,9.6-3.15l.38-.38-.41-.36c-.12-.1-11.21-9.55-13.44-14.8h7.74l-.65-.82c-.08-.1-7.93-9.91-9.82-15.23a16.16,16.16,0,0,0,5.73-.74l1.75-.57L98,26.4a6.11,6.11,0,0,1-2.53-1.49c-1.26-1.14-2.94-3.37-3.78-7.51a60.79,60.79,0,0,1-1-6.82v0A34.24,34.24,0,0,0,90,6.31L88.63,0l-1.4,6.31a31.73,31.73,0,0,0-.65,4.21v.06a63.19,63.19,0,0,1-1,6.82c-.85,4.14-2.52,6.37-3.78,7.51a6.11,6.11,0,0,1-2.53,1.49l-1.84.38,1.79.58a16.11,16.11,0,0,0,5.72.74C83,33.42,75.2,43.23,75.12,43.33l-.65.82h7.74C80,49.4,68.88,58.85,68.77,59l-.42.36.39.38c3.14,3.14,7.43,3.31,9.59,3.15C73,68.07,56.82,74.35,56.64,74.41l-1.22.48,1.23.46A61.1,61.1,0,0,0,74.3,78.91C69.91,83.37,54.63,91,54.46,91.12l-1,.47,1,.43a51.9,51.9,0,0,0,19.86,4.06c-6.47,8-27,14.76-27.24,14.83l-.8.27.62.57c5.09,4.71,19.4,6.71,23.2,7.16-7.33,8.19-36.9,13.47-37.21,13.52l-.68.12.33.61c2.43,4.49,8.33,8.33,17.54,11.4a94.77,94.77,0,0,0,12.14,3.1C56,154.21,45,157.88,36.72,159.82a115.69,115.69,0,0,1-17.25,2.71l-1.15.08.84.79c4.18,3.92,9.72,5.87,13.63,6.82a43.84,43.84,0,0,0,6.08,1C34,173.63,19.05,175,13.13,175.31l-1.38.08,1.11.82c5.22,3.86,14,6.77,26.06,8.65,6.4,1,12.07,1.41,14.82,1.57-7.75,3.58-24.22,2.44-24.4,2.42l-1.05-.07.61.86c3.59,5.1,9.2,8.3,13.27,10.08a46.42,46.42,0,0,0,6.7,2.36c-7.3,3.11-24.46,2.79-24.64,2.79l-1.23,0,.86.88A31.16,31.16,0,0,0,35,213.2c-8.89,1.44-27.19,1.35-27.39,1.35H6.14l1.13.9c6.41,5.12,11.67,7.33,15,8.28a20.7,20.7,0,0,0,4.84.86c-2.12,3-9.36,7.5-9.44,7.55l-1.07.67,1.23.25c4.09.82,9.37.19,15.68-1.9a67.39,67.39,0,0,0,6.81-2.68c-2.55,3.2-10.18,7.44-13.3,9l-2,1,2.2,0a229.87,229.87,0,0,0,25.56-2.06c-6.28,6.28-26.32,10.21-26.53,10.25l-1.71.33,1.63.63c10.62,4.09,17,4.86,20.25,4.87C33.42,257.72,1.34,258,1,258H0l.6.8A38.31,38.31,0,0,0,12.14,268.76Z"/></g></g></svg>