<svg xmlns="http://www.w3.org/2000/svg" viewBox="0 0 172.77 338.26"><defs><style>.cls-1{fill:#545022;}</style></defs><title>Asset 6</title><g id="Layer_2" data-name="Layer 2"><g id="Layer_1-2" data-name="Layer 1"><path class="cls-1" d="M3.64,114.59A14,14,0,0,1,5,109.67c.23,3.26,1.58,16.27,1.59,16.41v.11h2.6a10.71,10.71,0,0,0,1.34,6,8.1,8.1,0,0,0,1.36,1.66c.42.39.54.51.84,2.18a25,25,0,0,1,.21,4.74,24.14,24.14,0,0,0,.1,3.48c.33,2.35,3.06,6.58,4.42,8s1.59,2,1.59,4.33c0,1.94.16,2.16.75,2.68l.46.44a1,1,0,0,1,.31.86c0,.47.08.68,1.17.76a4.73,4.73,0,0,0,2.14-.23,41.78,41.78,0,0,0-1.8,5.13c-.85,3.06-.08,10.7-.05,11v.12l2.95,0,0-.16A48.61,48.61,0,0,1,24.28,167c.24-2.25,2.11-4.91,2.45-5.38a19.46,19.46,0,0,1,2.47,1,1.21,1.21,0,0,0,1.23,0,1.3,1.3,0,0,1,1.18,0,27.79,27.79,0,0,0,4.76.87c1.8,2.71,3.41,11,3.42,11.08l0,.18.15-.1a7.12,7.12,0,0,1,1.68-.61c0,3.49,1.47,8.28,2.85,12.92.54,1.83,1.06,3.55,1.49,5.2A65,65,0,0,1,47.53,202a96,96,0,0,0,1.36,9.73c.39,1.91.83,3.74,1.25,5.51,1.23,5.13,2.29,9.55,1.76,13.72a88.5,88.5,0,0,1-2.28,10.32c-.76,2.92-1.47,5.67-1.82,7.87a89.3,89.3,0,0,0-.63,13.33v.09a3.48,3.48,0,0,1-.62,2.36,4.06,4.06,0,0,0-.64,1.44,6.28,6.28,0,0,1-1.82,2.52,4.63,4.63,0,0,0-1.34,1.75c-.16.66-.26.72-.56.91a4.71,4.71,0,0,0-.82.63,3.68,3.68,0,0,0-1.43,3,1.34,1.34,0,0,1-.76,1.18,1.05,1.05,0,0,0-.62.91c0,.42-.31.6-.9.92a5.46,5.46,0,0,0-1.54,1.13,16.64,16.64,0,0,0-3.07,5.45c-.22.94-1.48,1.37-3.73,1.26a5.07,5.07,0,0,1-1.68-.46,9.48,9.48,0,0,0-1.83-.57,2.75,2.75,0,0,0-2.7,1.16.68.68,0,0,0,.13.84c.83.77,2.67.08,3.25-.22s1,.1,1.22.29a30.76,30.76,0,0,0-3.36,2.39c-.45.42-1,1.05-1.59,1.71a27.18,27.18,0,0,1-2.56,2.69c-.41.35-.93.71-1.48,1.1-1.6,1.13-3.42,2.4-3.62,4.1s1.51,4.31,5.27,7.88l.61.57c2.14,2.06,4.17,4,7.56,4.67s4,1.71,4.66,2.92l.16.27a12.68,12.68,0,0,1,.69,1.38,9.12,9.12,0,0,0,1.56,2.56,16.32,16.32,0,0,0,4.17,2.61,2.4,2.4,0,0,1,1,.87A3.15,3.15,0,0,0,42.84,324a3.72,3.72,0,0,1,1.41.57c.64.39,1.37.83,4.27,1.18,1.45.17,2.62.42,3.67.64a15.67,15.67,0,0,0,3.2.47,6.69,6.69,0,0,0,2.71-.58c2.58-1.12,3.32-2.67,3.51-3.21a8.61,8.61,0,0,0,4.93,1.41,4.45,4.45,0,0,1,2.48.57c.55.31,1,.55,2.79.15a5.73,5.73,0,0,1,3.24-.11,2.51,2.51,0,0,0,1.15.11,17,17,0,0,1,6.38,1,13,13,0,0,0,5.53.19c.72-.09,1.4-.16,2-.18,2.21-.06,2.93-.69,3.31-2.94.32-1.87-.69-3.76-3.29-6.14-1.91-1.74-6.52-6.64-8-8.25l-.4-.42c-1.24-1.31-2.9-3.53-2.51-4.11a3.92,3.92,0,0,0,.18-3.94,3.8,3.8,0,0,1-.45-1.58,2.43,2.43,0,0,0-1.22-2.14,3.29,3.29,0,0,0-2.52,0c-.91.24-1.64.42-2.07-.33-.89-1.54-1-3.81-1-6a19.17,19.17,0,0,0-.8-4.35c-.18-.65-.34-1.25-.45-1.82-.33-1.66,0-13.33,0-14.14.31-.37,3-3.59,5.07-5.56,1-.92,2.42-2.69,4-4.56a71.18,71.18,0,0,1,6.17-6.94,52.2,52.2,0,0,1,5.77-4.27,44.33,44.33,0,0,0,4.7-3.44c2.71-2.46,3.72-5,3.83-9.85.1-4.13,1.62-8.95,3.23-14l1-3.26a61.17,61.17,0,0,0,1.81-23.55l-.07-.7c-.89-8.29-2-18.61-2-24.31s-.45-13-.94-15.21c-.12-.54-.32-1.37-.55-2.33-.68-2.82-1.61-6.69-1.7-7.91-.06-.91.53-1.25,1.2-1.65a3,3,0,0,0,1.2-1,1.78,1.78,0,0,0,0-1.95,1.22,1.22,0,0,1-.13-.31,9.16,9.16,0,0,1-.14-2.58.74.74,0,0,1,.29-.62c.47-.31,1.51.08,2.52.46l1,.34a8.51,8.51,0,0,1,2.41,1.14c.69.47.86,1.54,1,2.77a13.85,13.85,0,0,0,.5,2.31,33.63,33.63,0,0,0,3.72,7.94c1.6,2.28,5.25,7.36,5.28,7.41l0,.06,7.2-1-.13-.17a34.82,34.82,0,0,0-3.5-4.09,23.82,23.82,0,0,1-2.67-3.63,53.14,53.14,0,0,0-3.68-5.12c-2.57-3-5.16-6-6-8.45a21.82,21.82,0,0,0-3.83-6.55,1.57,1.57,0,0,1-.54-.91c-.07-.34-.16-.56-.81-.84l-.16-.06a4.6,4.6,0,0,1-1.72-1.09c0-1.5-.09-2.9-.17-4.23a25.45,25.45,0,0,0-1.49-6.4c-.3-.88-.59-1.79-.85-2.71a12,12,0,0,1-.4-2.14c1,1.17,1.49,1.9,2,2.55s.94,1.28,1.73,2.22a52,52,0,0,0,6.11,6.34,70.71,70.71,0,0,0,10.14,7.2,153.83,153.83,0,0,0,14,6.74c1.65.65,2.69,1.15,3.46,1.52a8.6,8.6,0,0,0,2.76,1,3.67,3.67,0,0,1,1.8.73,4.54,4.54,0,0,0,1.71.8,4.48,4.48,0,0,1,1.16.44c-.45.59-.85,1.13-1.08,1.4s-.92,1.17-1.5,1.92-1.17,1.54-1.42,1.84a10.85,10.85,0,0,0-1.31,3.73c0,.57,1.88,2,2.75,2.11a2.9,2.9,0,0,0,2-.76l.3-.21a11.67,11.67,0,0,0,3.09-3.29c.2-.45.54-1.12.92-1.91.48-1,1-2.06,1.41-2.95a3.37,3.37,0,0,0,.65.18l-.37.73c-.34.71-.87,2-1.26,2.87l-.39.91-.08.17c-.19.43-.38.83-.26,1.06a.34.34,0,0,0,.22.16c.32.06.41-.16.55-.49a4.77,4.77,0,0,1,.38-.74,34.61,34.61,0,0,0,2-3.39,9,9,0,0,1,.63-1.08,6.8,6.8,0,0,1,1.52.63,13.3,13.3,0,0,0,3.46,1.28l.07,0a5.68,5.68,0,0,1-.67,1,.67.67,0,0,0-.13.65,7.45,7.45,0,0,1,.35,3.64.16.16,0,0,0,.14.2l.81.16s0,0,0,0a0,0,0,0,1,0,0,1,1,0,0,1-.79.62.3.3,0,0,0-.23.24l-.4,2.09a.3.3,0,0,0,.24.35l.24.05a.19.19,0,0,1,.15.21l-2.22,11.81a2.16,2.16,0,0,0-.7,1.36c-.08.53-.39,2.22-.93,5v.06a.23.23,0,0,1-.15.15l-1.07.25a.31.31,0,0,0-.23.25l-.51,2.73a.27.27,0,0,0,.31.31l.75-.14a.15.15,0,0,1,.17.18l-.1.52a.28.28,0,0,0,.22.31l.25,0a.16.16,0,0,1,.12.18l-27.56,145.3-.09,0a.22.22,0,0,0-.24.13l-.78,1.8a.45.45,0,0,1-.3.24c-.45.08-.91.18-1.33.28a12.44,12.44,0,0,0-1.34.36l-.06,0c-.39.12-.78.24-.91.69a1.3,1.3,0,0,0,.5,1.48.43.43,0,0,0,.45,0l1.45-.92a.2.2,0,0,1,.2,0c.09.05.1.08.1.09a1.11,1.11,0,0,1-.16.11l-.06,0-.13.07-.28.17-.08.05c-.28.17-.67.4-.45.92a.82.82,0,0,0,.56.51l.21.05.28.05.25,0,.66.12.4.08-1.11,6.91a.22.22,0,0,0,.18.26l-.11,1.44a.19.19,0,0,0,.14.21l-.07.54a.24.24,0,0,0,.19.26l.31.06a.23.23,0,0,0,.26-.18l.14-.52a.2.2,0,0,0,.2-.14l.42-1.39a.23.23,0,0,0,.26-.18l1.47-6.84.4.07.65.13.25.05a2.81,2.81,0,0,0,.49.09.86.86,0,0,0,.72-.27c.38-.41.11-.76-.09-1l-.06-.08c-.08-.09-.15-.19-.23-.29l-.07-.08a.1.1,0,0,0,0-.05l-.11-.16s0,0,.13,0a.21.21,0,0,1,.19.08l1,1.39a.46.46,0,0,0,.42.18,1.3,1.3,0,0,0,1-1.2c.05-.47-.28-.73-.59-1l0,0c-.36-.28-.74-.56-1.12-.82l-1.14-.74a.39.39,0,0,1-.19-.33l-.08-2a.22.22,0,0,0-.18-.21h-.09L157.46,176a1.94,1.94,0,0,0,1-1l1.33.25a1.13,1.13,0,0,0,1.3-.89l.27-1.46a1.12,1.12,0,0,0-.89-1.3l-1.47-.28,1.15-6.13a.28.28,0,0,0-.22-.32.16.16,0,0,1-.12-.18l1.79-9.54s0,0,0,0l.1,0a.13.13,0,0,0,.15-.11l.09-.45s0,0,0,0l.52-.25a.2.2,0,0,0,.08-.1l.43-2.3a.15.15,0,0,0-.12-.17l-.44-.09a0,0,0,0,1,0,0l0-.17c0-.15.21-.23.39-.32a1.36,1.36,0,0,0,.24-.13,1.69,1.69,0,0,0,.7-1.08,9.81,9.81,0,0,1,1.51-3.17,1.69,1.69,0,0,0,.33-.78,1.58,1.58,0,0,0,.9-.17c1.13-.57,1.73-2.37,1.85-2.76a2.24,2.24,0,0,0,1.66-1.17,2.77,2.77,0,0,0-.19-2.2,1.62,1.62,0,0,0,1.17-.91c.45-1-.3-2.52-.56-3a2.33,2.33,0,0,0,1.3-1.47,2.67,2.67,0,0,0-.19-2.48,8.69,8.69,0,0,0-3.29-1.85,7.19,7.19,0,0,1,.17-1.05,12.55,12.55,0,0,1,1.45-3.38c.07-.1.13-.22.2-.33a4.58,4.58,0,0,1,1.42-1.71l.21-.12c.52-.29,1.16-.66,1-1.39s-2.09-1.71-4.38-2.1c-2.48-.42-4.62.21-5.45,1a1.65,1.65,0,0,0-.47,1.73,15.51,15.51,0,0,0-2.58.66,13.25,13.25,0,0,0-3.78,2.27,26.2,26.2,0,0,0-2,2.87c-.11.17-.25.43-.43.73-.38,0-.81,0-1.33,0a3.61,3.61,0,0,1-2.63-.83,7.81,7.81,0,0,0-1.33-.83c-.67-.33-1.59-.71-2.57-1.12a34.85,34.85,0,0,1-4.29-2,31.8,31.8,0,0,1-6.21-5c-2.49-2.58-11.55-9.65-14.61-11.76a11.06,11.06,0,0,1-3.53-4,16.51,16.51,0,0,0-1.59-2.35,16.82,16.82,0,0,1-2.39-4.09c-.7-1.46-1.56-3.27-3.07-5.92-2.13-3.75-3.56-9-4.94-14.09-.76-2.81-1.48-5.46-2.28-7.66A14,14,0,0,0,97.11,62a4.63,4.63,0,0,1-.89-.7,21.35,21.35,0,0,1-1.46-2.71c-.35-.7-.71-1.44-1-2-.69-1.22-1.87-1.66-3.67-2.32L89.25,54a12.89,12.89,0,0,0-4-.54,8,8,0,0,1-2.94-.4,11.84,11.84,0,0,0-3.43-1,16.65,16.65,0,0,1-.16-2.82c0-1.41,2.72-2.16,5.36-2.16h.44c2.49,0,5.31,0,5.9-1s.43-2.9.39-4.14c0-.24,0-.43,0-.57,0-.3.17-.38.44-.48s.53-.2.43-.6c-.16-.6-.07-1.1.23-1.28s.35-.63.42-1.43c0-.37.06-.83.14-1.37.22-1.56.22-1.56,1.55-1.56s2.07-.07,2.07-1.58c0-1.33-.75-2.27-1.88-3.69L94,29.17a14.9,14.9,0,0,0-1.21-1.31c-1-.95-1.77-1.77-1.47-2.59a9.92,9.92,0,0,1,.49-1.08,5,5,0,0,0,.77-3.42,38.86,38.86,0,0,0-2.12-5.21c-.37-.79-.71-1.55-1-2.22a4,4,0,0,1-.18-3.16,2.94,2.94,0,0,0,.19-1A8.46,8.46,0,0,0,86.2,3.1C83.62,1.23,81.32,0,73.11,0c-8.43,0-10.6,1.17-11.69,2.42s-4.28.47-6.63-.66l0,0C52.3.56,51.57.21,49.28.85a13,13,0,0,0-6.39,4.08l-.31.38a13,13,0,0,0-3.33,6.9c-.91,4.18,0,5.08,0,5.12l.13.12,1.17-2.55a36,36,0,0,0,.29,6.51c.42,2.94,1.93,6.56,4.47,10.77,1.71,2.82.78,10.62.77,10.7l0,.34.78-.71c0,.63.11,2.13.11,2.31a.16.16,0,0,0,.1.16c.07,0,.18.06.68-.58l.36,1.79.59-.7,0,1.25,1.2-.37.62,1.71c-5.46.47-7,3.77-7.72,5.18l0,.11c-.56,1.15-.58,1.15-1.49,1.14h-.93a16.13,16.13,0,0,0-5,.43,5.79,5.79,0,0,1-2.5.17,5,5,0,0,0-2.16.14,9.79,9.79,0,0,0-4.55,3,4,4,0,0,1-2,1.27,7.74,7.74,0,0,0-1.62.7c-1.13.65-1.13,1.51-1.13,2.6A8.8,8.8,0,0,1,21,65.14a3.37,3.37,0,0,1-2,2.33,5.78,5.78,0,0,0-1.94,1.64,13.32,13.32,0,0,0-1.89,4.23c-.14.47-.29,1-.47,1.5-.76,2.27-1.89,2.91-3,3.26A2.44,2.44,0,0,0,10.37,80l0,.11c0,.14-.26.3-.5.48a2.49,2.49,0,0,0-1.27,1.81,40.71,40.71,0,0,1-1.75,5.92l-.06.18,1.63,0,1.46-4.91.61,3.38c-.44.47-3.62,3.83-4.27,5.46A6.6,6.6,0,0,0,6,95.19c.09,1.12.18,2.18-.35,2.83-1,1.23-.83,4.73-.8,5.19C3.67,104.94.2,111.8.05,112.09l0,.1,3.62,2.65Zm158.48,11.68q-.08.69-.18,1.35c-.35,0-.66,0-1-.05h-.2A3.18,3.18,0,0,1,162.12,126.27Zm-7.39,2.91a8.43,8.43,0,0,1,1.73-1.81.31.31,0,0,1,.27-.07.31.31,0,0,1,.18.09,1.31,1.31,0,0,0,.42.29l.35.12.15,0h0a6.56,6.56,0,0,1-1.09.76,4.21,4.21,0,0,1-2,.62A.21.21,0,0,0,154.73,129.18Zm-7.72,12a1.59,1.59,0,0,1,.13-.22,5.73,5.73,0,0,0,1.32.28,5,5,0,0,1,1.32.32l-.16.41a26.63,26.63,0,0,1-1.62,3.17c-.26.45-.48.84-.62,1.12-.43.82-2.52,2.92-4.07,3.22a19.78,19.78,0,0,1,1.22-4.12c.46-.89,1-1.79,1.52-2.59.28-.45.55-.87.75-1.23Zm-47-31.91a10.5,10.5,0,0,0,.42,4.11c.26,1,.57,1.87.86,2.77a23.4,23.4,0,0,1,1.43,6.08c0,.63.07,1.28.1,1.94l-.18-.41c-.81-2-1.67-2.16-2.23-2.3-.33-.08-.5-.12-.56-.43-.11-.51-.29-1.94-.48-3.46s-.4-3.25-.56-4.13c-.25-1.36-.39-5.32-.43-6.83A22.89,22.89,0,0,0,100,109.31ZM72.21,234.53l.56-1.79c.3-1,.58-1.88,1.11-3.36.58-1.65,1.24-4.14,1.56-5.41.09,1.36.27,4,.4,5.07a10.44,10.44,0,0,1-.51,3.32,25.71,25.71,0,0,0-.53,2.52c-.22,1.65-2.78,3.78-3.59,4.42A33.11,33.11,0,0,1,72.21,234.53ZM54.72,315.1a.79.79,0,0,1-.55-.05,1.88,1.88,0,0,1-.82-1.17,13.49,13.49,0,0,1-.46-1.81,13.14,13.14,0,0,0-.35-1.53,9.84,9.84,0,0,1,.06-3.73c.2.7.58,2,.78,3.1a4.88,4.88,0,0,0,1.13,2.17,5.62,5.62,0,0,1,.86,1.35A1.28,1.28,0,0,1,54.72,315.1Zm-.79-20.21.11-.17a4.5,4.5,0,0,0,.53-1.72c0-.05,0-.09,0-.1a.94.94,0,0,1,.29-.2c.06.44.25,1.64.39,2.39,0,.1,0,.19,0,.28a3.59,3.59,0,0,0,1.15,2.2,4.23,4.23,0,0,1,.78,2.77,1.88,1.88,0,0,0,0,.56c.13.35.4,2.47-.55,3.45A2.36,2.36,0,0,0,55.9,306a6.66,6.66,0,0,1-.2,1,22,22,0,0,0-.23,4.8,10.42,10.42,0,0,1-1-1.46,3,3,0,0,1-.51-2c0-.29,0-.65,0-1.1-.06-.79-.2-1.68-.33-2.53a24.86,24.86,0,0,1-.33-2.53,2.7,2.7,0,0,0-1-2,6,6,0,0,1-.7-.82c-.68-1-.35-2.18.88-3.13S53.63,295.34,53.93,294.89ZM46.73,52a8.81,8.81,0,0,1,4.14-1.76,3.62,3.62,0,0,1,0,1.08c-.1.8-.25,2-1.19,2.5a1.93,1.93,0,0,0-.8,1.13c-.22.59-.42,1.09-1.19,1.08a6.23,6.23,0,0,1-3-1.4A5.43,5.43,0,0,1,46.73,52Z"/></g></g></svg>