<svg xmlns="http://www.w3.org/2000/svg" viewBox="0 0 274.43 338.26"><defs><style>.cls-1{fill:#545022;}</style></defs><title>Asset 7</title><g id="Layer_2" data-name="Layer 2"><g id="Layer_1-2" data-name="Layer 1"><path class="cls-1" d="M77.13,224.9c11.23,9.61,24.61,12.77,39.71,12.79-3-3.62-5.7-6.66-8.25-9.79-5.93-7.27-10-15.38-8.74-25,1.19-9.39,3.1-18.69,4.75-28.31a13.91,13.91,0,0,1,5.64,7.78c1,3.13,1.78,6.35,2.63,9.47,15.55-17,19.07-38,19.83-60.74,18.5,11.3,23.18,31.28,34.13,47.91,1-6.91,1.93-12.93,2.9-19.4a52.23,52.23,0,0,1,13.71,28.72c2.65,19-2.08,35.69-17,48.85a6.45,6.45,0,0,0,2.29-.33c1.1-.35,2.2-.72,3.28-1.15,13.39-5.31,24.78-13.7,35.54-23.07,5.91-5.16,11.18-10.81,15-17.75,10-18,13.5-36.59,7.25-56.74-2.46-7.94-3.82-16.27-5.09-24.51-.87-5.67-.74-11.49-1.07-17.72-1.08.83-2.22,1.33-2.78,2.22-2.36,3.67-4.92,7.29-6.7,11.25-3.2,7.18-5.91,14.58-8.94,22.18-.6-.69-.82-.85-.89-1.05-.66-1.85-1.38-3.7-1.95-5.58-5.23-17.17-12.57-33.25-24.11-47.21-6.82-8.25-13.52-16.61-20.34-24.87s-11.14-17.57-12.08-28.1c-.71-7.82-.14-15.75-.14-24.75-3.95,2.93-7.49,5.12-10.5,7.88C122.66,19.37,114.81,34,110.4,50c-5,18.24-8.56,36.87-12.81,55.32-.75,3.28-1.74,6.51-2.62,9.77l-1.35,0c-2.71-6.34-5.13-12.83-8.2-19A56.68,56.68,0,0,0,71.81,78.91c4.18,18.3,3.4,27.94-3.06,42.23-2,4.45-3.88,9-5.9,13.4A81.52,81.52,0,0,0,57.72,189C61.06,202.74,66.1,215.46,77.13,224.9Z"/><path class="cls-1" d="M238.48,271.34c1.63-.51,3.77-2,4.15-3.41a25.73,25.73,0,0,0-3.37-21.05c-1.18-1.91-2.47-2.69-4.89-1.93-4.87,1.55-9.86,2.71-14.8,4l-20.75,5.56c-.12-.2-.24-.4-.35-.61q6.27-7.2,12.55-14.39c2.45-2.8,2.25-5.29-.69-8.06-3.39-3.21-6.75-3.57-9.27-.92-5.95,6.24-11.73,12.64-17.85,18.7a16,16,0,0,1-7.07,4.11c-29.27,7-58.61,13.76-87.92,20.61C61.4,280.26,34.59,286.6,7.75,292.8c-3.22.75-5.4,2.32-5.85,5.55C1.08,304.18-.25,310.09,0,315.89a26,26,0,0,0,10.69,20.33,9.53,9.53,0,0,0,9.17,1.48c12.42-3.9,24.9-7.61,37.36-11.37,5.72-1.73,11.46-3.4,17.75-5.26-.65,3.92-1.39,7.19-1.67,10.5-.13,1.57.08,3.77,1.07,4.71,3,2.93,12,.82,13.93-3q8.55-17.21,17.09-34.38c.59-1.18,1.27-2.32,1.91-3.48l.84.17v15.23c1.69-.45,2.8-.72,3.9-1q33.2-10.07,66.38-20.13C198.48,283.59,218.51,277.55,238.48,271.34Z"/><path class="cls-1" d="M260.08,305.22h14.35c-1.12-3.85-2.08-7.25-3.11-10.63a5.38,5.38,0,0,0-4.41-3.88c-13.35-3.11-26.66-6.4-40-9.55a7.56,7.56,0,0,0-3.75,0c-24.34,7.33-48.66,14.72-73.48,22.26a7.32,7.32,0,0,0,1.28.77Q204,320.1,257.13,335.93a3.54,3.54,0,0,0,2.88-.29c6.87-6.06,11.67-13.38,13.6-22.58l-13.86-7C259.85,305.79,260,305.5,260.08,305.22Z"/><path class="cls-1" d="M41.45,271.71c4.44.67,8.69,2.55,13.08,3.62a13.2,13.2,0,0,0,5.76.21c9.65-2.12,19.25-4.44,28.87-6.69l42.35-10c0-.25,0-.49,0-.75-.53-.14-1.05-.31-1.58-.44-26.76-6.5-53.58-12.76-80.25-19.64-6.48-1.67-10.44.45-14.1,5-4,5-5.62,10.72-4.26,17C32.54,265.72,34.52,270.65,41.45,271.71Z"/></g></g></svg>